<?xml version="1.0" encoding="utf-8" standalone="no"?>
<!DOCTYPE svg PUBLIC "-//W3C//DTD SVG 1.1//EN"
  "http://www.w3.org/Graphics/SVG/1.1/DTD/svg11.dtd">
<svg height="295.630125pt" version="1.1" viewBox="0 0 313.361506 295.630125" width="313.361506pt" xmlns="http://www.w3.org/2000/svg" xmlns:xlink="http://www.w3.org/1999/xlink">
 <metadata>
  <rdf:RDF xmlns:cc="http://creativecommons.org/ns#" xmlns:dc="http://purl.org/dc/elements/1.1/" xmlns:rdf="http://www.w3.org/1999/02/22-rdf-syntax-ns#">
   <cc:Work>
    <dc:type rdf:resource="http://purl.org/dc/dcmitype/StillImage"/>
    <dc:date>2022-07-18T23:13:28.453011</dc:date>
    <dc:format>image/svg+xml</dc:format>
    <dc:creator>
     <cc:Agent>
      <dc:title>Matplotlib v3.4.3, https://matplotlib.org/</dc:title>
     </cc:Agent>
    </dc:creator>
   </cc:Work>
  </rdf:RDF>
 </metadata>
 <defs>
  <style type="text/css">*{stroke-linecap:butt;stroke-linejoin:round;}</style>
 </defs>
 <g id="figure_1">
  <g id="patch_1">
   <path d="M 0 295.630125 
L 313.361506 295.630125 
L 313.361506 0 
L 0 0 
z
" style="fill:none;"/>
  </g>
  <g id="axes_1">
   <g id="patch_2">
    <path d="M 7.2 288.430125 
L 7.2 22.318125 
L 306.161506 22.318125 
L 306.161506 288.430125 
L 7.2 288.430125 
" style="fill:none;"/>
   </g>
   <g id="PathCollection_1">
    <path clip-path="url(#p1b6a6fa96f)" d="M 310.322614 241.471599 
L 310.179678 239.528113 
L 309.127425 237.354796 
L 307.828835 235.267213 
L 306.892148 232.974792 
L 306.289991 228.248772 
L 305.77603 226.371526 
L 304.340586 223.941117 
L 295.758338 212.799249 
L 317.658966 213.937564 
L 317.636793 217.494948 
L 337.312814 217.525993 
L 344.19834 217.414657 
L 344.288705 220.39738 
L 347.506152 220.37811 
L 346.215788 224.822592 
L 344.220886 227.010146 
L 342.732347 227.370348 
L 339.751552 230.094144 
L 338.157091 234.84104 
L 336.496103 236.952787 
L 334.388807 241.286477 
L 331.91241 242.390634 
L 330.607958 241.790917 
L 326.645523 242.706656 
L 323.938278 242.268463 
L 320.783071 242.897813 
L 314.550192 247.310141 
L 309.443709 248.106688 
L 308.792894 246.432997 
L 309.322062 245.013598 
L 310.13406 243.368193 
z
" style="fill:none;stroke:#999999;stroke-width:0.25;"/>
    <path clip-path="url(#p1b6a6fa96f)" d="M 306.289991 228.248772 
L 306.892148 232.974792 
L 307.828835 235.267213 
L 309.127425 237.354796 
L 310.179678 239.528113 
L 310.322614 241.471599 
L 310.13406 243.368193 
L 309.322062 245.013598 
L 308.792894 246.432997 
L 309.443709 248.106688 
L 306.740088 251.034238 
L 307.171938 253.721133 
L 309.610975 256.113799 
L 315.550426 259.544438 
L 316.751698 260.532641 
L 317.508955 262.193799 
L 318.062452 262.301194 
L 318.622032 262.598316 
L 318.874451 263.675776 
L 318.527755 264.86768 
L 317.657974 265.658644 
L 316.544897 266.070213 
L 315.471355 266.13821 
L 316.189077 267.970421 
L 315.821092 269.433859 
L 314.857034 270.517916 
L 313.774369 271.229838 
L 311.536051 270.274637 
L 309.680922 270.743302 
L 309.236908 271.956031 
L 311.219766 273.233032 
L 309.735664 274.348966 
L 307.704146 275.311025 
L 305.614846 275.979776 
L 303.954355 276.230102 
L 303.105862 276.780802 
L 302.254327 278.118121 
L 300.259304 282.922771 
L 300.04338 284.155826 
L 300.088998 287.772124 
L 299.781837 289.672786 
L 298.525824 292.244676 
L 298.353332 293.700076 
L 283.102012 294.021694 
L 281.949195 291.745413 
L 277.706359 288.195709 
L 276.012502 284.083462 
L 274.044353 281.414933 
L 255.059431 281.602345 
L 252.91675 281.616987 
L 252.157326 268.731873 
L 252.006663 256.705833 
L 252.094283 243.024118 
L 265.036772 242.85852 
L 264.576122 234.373842 
L 291.297668 233.95564 
L 298.775939 233.74624 
L 298.57277 228.252734 
z
" style="fill:none;stroke:#999999;stroke-width:0.25;"/>
    <path clip-path="url(#p1b6a6fa96f)" d="M 295.758338 212.799249 
L 304.340586 223.941117 
L 305.77603 226.371526 
L 306.289991 228.248772 
L 298.57277 228.252734 
L 298.775939 233.74624 
L 291.297668 233.95564 
L 264.576122 234.373842 
L 265.036772 242.85852 
L 252.094283 243.024118 
L 251.530069 230.19239 
L 245.205291 230.215026 
L 223.81647 219.773883 
L 223.791557 217.65664 
L 219.506319 217.700779 
L 219.481405 215.655673 
L 219.369171 200.711629 
L 221.491049 200.638116 
L 221.474482 198.486896 
L 230.144488 198.28061 
L 230.156945 196.188098 
L 232.274837 196.129149 
L 245.043106 195.819663 
L 252.529847 195.863876 
L 252.529847 193.697274 
L 254.660072 193.741495 
L 255.76872 195.834254 
L 270.655006 195.804779 
L 270.67992 193.682388 
L 290.487949 192.984756 
L 291.503708 194.697688 
L 292.233594 199.835132 
L 293.480484 202.859808 
L 293.562596 204.718861 
L 293.282806 207.321811 
L 294.040063 208.712953 
L 295.512001 209.694212 
L 296.482142 210.858687 
z
" style="fill:none;stroke:#999999;stroke-width:0.25;"/>
    <path clip-path="url(#p1b6a6fa96f)" d="M 295.758338 212.799249 
L 296.482142 210.858687 
L 295.512001 209.694212 
L 294.040063 208.712953 
L 293.282806 207.321811 
L 293.562596 204.718861 
L 293.480484 202.859808 
L 292.233594 199.835132 
L 291.503708 194.697688 
L 290.487949 192.984756 
L 289.323172 191.476757 
L 288.851787 190.065774 
L 289.882751 188.658238 
L 289.189359 187.664591 
L 286.677333 184.949676 
L 285.913994 184.002563 
L 285.299672 182.976145 
L 284.901276 181.816376 
L 284.776587 180.512413 
L 285.144572 176.271824 
L 284.743404 175.221485 
L 323.361843 175.464768 
L 323.377049 174.898993 
L 325.147328 175.504216 
L 335.077332 175.601488 
L 343.465192 179.006452 
L 344.475433 181.256209 
L 344.351737 199.13889 
L 343.157261 200.227087 
L 344.292193 202.388773 
L 344.19834 217.414657 
L 337.312814 217.525993 
L 317.636793 217.494948 
L 317.658966 213.937564 
z
" style="fill:none;stroke:#999999;stroke-width:0.25;"/>
    <path clip-path="url(#p1b6a6fa96f)" d="M 284.743404 175.221485 
L 285.144572 176.271824 
L 284.776587 180.512413 
L 284.901276 181.816376 
L 285.299672 182.976145 
L 285.913994 184.002563 
L 286.677333 184.949676 
L 289.189359 187.664591 
L 289.882751 188.658238 
L 288.851787 190.065774 
L 289.323172 191.476757 
L 290.487949 192.984756 
L 270.67992 193.682388 
L 270.655006 195.804779 
L 255.76872 195.834254 
L 254.660072 193.741495 
L 252.529847 193.697274 
L 252.529847 195.863876 
L 245.043106 195.819663 
L 232.274837 196.129149 
L 232.212305 180.42493 
L 232.271601 140.182455 
L 250.496912 139.932611 
L 276.994172 138.911231 
L 278.174156 145.667453 
L 279.119967 151.113208 
L 279.813359 155.134658 
L 280.251291 157.624875 
L 280.400309 158.4801 
L 281.419109 164.281143 
L 281.081537 165.630018 
z
" style="fill:none;stroke:#999999;stroke-width:0.25;"/>
    <path clip-path="url(#p1b6a6fa96f)" d="M 284.743404 175.221485 
L 281.081537 165.630018 
L 281.419109 164.281143 
L 280.400309 158.4801 
L 280.251291 157.624875 
L 279.813359 155.134658 
L 279.119967 151.113208 
L 278.174156 145.667453 
L 276.994172 138.911231 
L 276.661004 136.902338 
L 291.537588 131.844684 
L 292.710825 129.651409 
L 295.199986 130.616602 
L 300.599483 129.130493 
L 301.079814 128.195191 
L 313.758769 122.801228 
L 323.335499 122.924613 
L 323.307868 127.780605 
L 323.037906 161.839179 
L 323.410736 161.852256 
L 323.377049 174.898993 
L 323.361843 175.464768 
z
" style="fill:none;stroke:#999999;stroke-width:0.25;"/>
    <path clip-path="url(#p1b6a6fa96f)" d="M 276.661004 136.902338 
L 276.994172 138.911231 
L 250.496912 139.932611 
L 232.271601 140.182455 
L 224.755275 140.286802 
L 224.809649 124.66484 
L 225.203905 108.043097 
L 225.879309 92.337082 
L 226.005247 82.544465 
L 247.8095 82.743989 
L 264.921656 83.268534 
L 268.221849 84.481098 
L 268.959339 89.170894 
L 269.533136 92.626092 
L 270.905703 100.887407 
L 272.754748 111.832703 
L 274.117203 121.885733 
L 275.674294 130.950964 
z
" style="fill:none;stroke:#999999;stroke-width:0.25;"/>
    <path clip-path="url(#p1b6a6fa96f)" d="M 276.661004 136.902338 
L 275.674294 130.950964 
L 274.117203 121.885733 
L 272.754748 111.832703 
L 270.905703 100.887407 
L 269.533136 92.626092 
L 303.34031 93.071696 
L 310.649009 112.97754 
L 312.53801 114.263818 
L 311.820129 116.73575 
L 313.758769 122.801228 
L 301.079814 128.195191 
L 300.599483 129.130493 
L 295.199986 130.616602 
L 292.710825 129.651409 
L 291.537588 131.844684 
z
" style="fill:none;stroke:#999999;stroke-width:0.25;"/>
    <path clip-path="url(#p1b6a6fa96f)" d="M 269.533136 92.626092 
L 268.959339 89.170894 
L 268.221849 84.481098 
L 267.012975 76.789972 
L 264.774656 63.844473 
L 263.991261 59.155256 
L 270.06967 59.299357 
L 288.85323 52.158423 
L 291.907432 53.417469 
L 299.822934 49.980039 
L 300.017633 35.404874 
L 301.43765 35.470147 
L 309.749201 37.305929 
L 318.408494 40.127738 
L 318.278569 59.752456 
L 317.897767 71.017773 
L 329.566857 70.908323 
L 329.387411 71.499294 
L 329.073154 75.973124 
L 327.77051 78.079336 
L 326.154044 79.882065 
L 325.677155 80.41513 
L 323.264474 82.302816 
L 320.988648 83.08322 
L 319.194343 84.020852 
L 312.904141 90.189355 
L 308.49441 88.738211 
L 304.04413 91.93051 
L 303.34031 93.071696 
z
" style="fill:none;stroke:#999999;stroke-width:0.25;"/>
    <path clip-path="url(#p1b6a6fa96f)" d="M 263.991261 59.155256 
L 264.774656 63.844473 
L 267.012975 76.789972 
L 268.221849 84.481098 
L 264.921656 83.268534 
L 247.8095 82.743989 
L 226.005247 82.544465 
L 210.814893 82.141838 
L 210.789481 84.389124 
L 208.664613 84.36519 
L 208.658883 86.489167 
L 195.573466 86.477424 
L 197.781919 85.388054 
L 197.874722 83.185397 
L 200.040289 82.132248 
L 206.900367 75.708808 
L 206.999921 73.566787 
L 213.469297 73.592408 
L 213.701366 67.054875 
L 215.910691 67.140171 
L 215.856255 65.039615 
L 220.216483 65.133709 
L 220.1253 62.918164 
L 224.469459 63.010933 
L 224.502095 61.378521 
L 226.616002 59.846733 
L 226.681525 41.225763 
L 228.775127 41.201002 
L 228.819473 39.047513 
L 230.989559 39.075709 
L 230.99915 36.899029 
L 233.167493 36.936182 
L 233.265154 30.395253 
L 226.796999 30.309112 
L 226.905373 25.915618 
L 231.184258 26.0557 
L 231.190237 23.850189 
L 239.831842 23.940407 
L 240.129682 16.129581 
L 244.399101 15.984457 
L 244.465246 13.814705 
L 253.14285 13.791086 
L 256.409772 12.75226 
L 258.0597 22.718689 
L 260.602138 38.274441 
L 262.536338 50.441827 
z
" style="fill:none;stroke:#999999;stroke-width:0.25;"/>
    <path clip-path="url(#p1b6a6fa96f)" d="M 263.991261 59.155256 
L 262.536338 50.441827 
L 260.602138 38.274441 
L 258.0597 22.718689 
L 279.655247 22.4368 
L 279.65724 21.377625 
L 299.885393 21.648448 
L 301.592413 21.67268 
L 301.43765 35.470147 
L 300.017633 35.404874 
L 299.822934 49.980039 
L 291.907432 53.417469 
L 288.85323 52.158423 
L 270.06967 59.299357 
z
" style="fill:none;stroke:#999999;stroke-width:0.25;"/>
    <path clip-path="url(#p1b6a6fa96f)" d="M 258.0597 22.718689 
L 256.409772 12.75226 
L 255.724064 8.607905 
L 253.583063 -5.028927 
L 274.014967 -4.469191 
L 274.070524 -7.693467 
L 279.99868 -7.237511 
L 286.559887 -7.176269 
L 286.542261 -5.117423 
L 290.906038 -5.069815 
L 290.975142 -7.037764 
L 300.323448 -7.056181 
L 300.301648 -5.030291 
L 315.785857 -4.972801 
L 315.03291 -3.340327 
L 308.817439 14.639395 
L 299.954479 14.453744 
L 299.885393 21.648448 
L 279.65724 21.377625 
L 279.655247 22.4368 
z
" style="fill:none;stroke:#999999;stroke-width:0.25;"/>
    <path clip-path="url(#p1b6a6fa96f)" d="M 313.774369 271.229838 
L 314.857034 270.517916 
L 315.821092 269.433859 
L 316.189077 267.970421 
L 330.761072 269.268415 
L 348.649429 268.975161 
L 349.845399 268.960359 
L 350.96638 270.08879 
L 350.455777 298.837833 
L 349.247475 298.896323 
L 349.057073 314.701002 
L 317.746034 314.093929 
L 314.164352 311.556381 
L 311.736536 311.494441 
L 310.587652 310.224311 
L 310.652926 307.890457 
L 311.929491 306.742885 
L 300.92659 306.614721 
L 297.388417 305.200126 
L 298.452835 303.023324 
L 298.632266 302.480852 
L 299.058033 298.850716 
L 298.130469 295.580245 
L 298.353332 293.700076 
L 298.525824 292.244676 
L 299.781837 289.672786 
L 300.088998 287.772124 
L 300.04338 284.155826 
L 300.259304 282.922771 
L 302.254327 278.118121 
L 303.105862 276.780802 
L 303.954355 276.230102 
L 305.614846 275.979776 
L 307.704146 275.311025 
L 309.735664 274.348966 
L 311.219766 273.233032 
L 309.236908 271.956031 
L 309.680922 270.743302 
L 311.536051 270.274637 
z
" style="fill:none;stroke:#999999;stroke-width:0.25;"/>
    <path clip-path="url(#p1b6a6fa96f)" d="M 298.353332 293.700076 
L 298.130469 295.580245 
L 299.058033 298.850716 
L 298.632266 302.480852 
L 298.452835 303.023324 
L 297.388417 305.200126 
L 296.877497 305.881642 
L 293.371001 311.617832 
L 290.953252 317.233905 
L 289.958781 322.11707 
L 289.335336 324.037766 
L 289.168071 324.746821 
L 289.043382 325.658918 
L 288.234424 328.765277 
L 289.089 331.721347 
L 289.734836 334.776148 
L 290.351061 337.690243 
L 287.322972 335.999231 
L 283.749012 339.090347 
L 280.617143 340.63469 
L 280.113641 345.128653 
L 279.24603 346.487402 
L 264.538872 345.973352 
L 254.34217 345.867275 
L 254.287609 358.566999 
L 243.886119 358.450541 
L 233.235493 358.843727 
L 210.20303 358.905769 
L 212.296385 355.659473 
L 214.835781 350.533701 
L 217.370109 343.206071 
L 218.718817 337.797236 
L 222.636443 319.838736 
L 223.166701 317.782838 
L 224.253344 314.134618 
L 225.571195 310.461297 
L 226.473416 308.719384 
L 227.669619 307.114007 
L 231.214799 303.351903 
L 242.338871 303.101064 
L 242.303867 301.011285 
L 252.787946 300.871224 
L 252.559864 295.456969 
L 252.91675 282.671281 
L 255.059431 281.602345 
L 274.044353 281.414933 
L 276.012502 284.083462 
L 277.706359 288.195709 
L 281.949195 291.745413 
L 283.102012 294.021694 
z
" style="fill:none;stroke:#999999;stroke-width:0.25;"/>
    <path clip-path="url(#p1b6a6fa96f)" d="M 130.134045 199.244817 
L 130.209498 243.019506 
L 129.195766 243.276434 
L 126.650908 243.545631 
L 125.105361 244.106935 
L 117.821702 252.086627 
L 114.952843 251.083459 
L 109.716921 248.121278 
L 108.495375 248.151142 
L 107.329584 248.431861 
L 106.194205 248.431861 
L 105.038551 247.613579 
L 104.349214 246.245681 
L 103.974133 244.728283 
L 103.487542 243.521407 
L 102.448468 243.019506 
L 100.010444 244.118884 
L 96.913495 249.01717 
L 94.333549 250.211596 
L 93.441466 249.871196 
L 91.542031 248.59743 
L 90.927412 247.613579 
L 90.770284 245.463108 
L 90.238075 244.788026 
L 84.581455 245.660249 
L 83.80595 247.183513 
L 83.902255 249.435231 
L 83.197712 252.217989 
L 84.125276 253.041954 
L 81.114494 256.229856 
L 79.046482 255.883642 
L 78.610578 254.988219 
L 78.90456 253.698702 
L 79.021139 252.217989 
L 77.252178 245.81557 
L 76.937921 242.780498 
L 78.093575 241.011707 
L 78.093575 240.103317 
L 75.503492 238.579231 
L 74.271808 238.364051 
L 69.213906 225.423634 
L 68.835719 222.542683 
L 69.697874 219.981012 
L 67.979876 213.312666 
L 67.225771 208.253437 
L 67.372077 205.612356 
L 79.876263 206.207295 
L 92.538898 205.970207 
L 92.626469 199.494108 
z
" style="fill:none;stroke:#999999;stroke-width:0.25;"/>
    <path clip-path="url(#p1b6a6fa96f)" d="M 130.209498 243.019506 
L 130.134045 199.244817 
L 130.106516 192.877404 
L 135.38991 192.556372 
L 139.644257 192.406718 
L 139.656838 190.291881 
L 141.840627 190.335523 
L 141.797776 192.419101 
L 180.700131 192.229231 
L 185.062476 192.238223 
L 184.987611 190.130142 
L 187.130293 190.144886 
L 187.217489 192.252965 
L 193.296497 192.268004 
L 192.300536 195.832578 
L 192.462733 202.936781 
L 194.520607 205.393873 
L 193.587975 211.330934 
L 194.53356 219.020232 
L 194.444577 222.85586 
L 195.362004 229.269495 
L 195.448171 231.332916 
L 194.976786 232.875784 
L 193.770446 233.671068 
L 191.706279 233.905776 
L 187.840118 233.874365 
L 184.008214 234.113535 
L 182.122674 234.795145 
L 180.419606 236.720204 
L 178.174191 238.393938 
L 175.432048 239.655075 
L 173.698568 240.049529 
L 169.785565 239.864256 
L 165.639404 239.009579 
L 161.54393 237.628829 
L 157.828605 235.889235 
L 156.201567 234.831019 
L 148.993937 228.061196 
L 148.487072 229.030236 
L 148.279257 229.682205 
L 148.000481 230.250408 
L 147.290869 230.974084 
L 143.793496 232.511014 
L 142.617568 233.527561 
L 141.461914 235.703904 
L 141.603837 237.431567 
L 143.894869 241.011707 
L 142.186732 242.099303 
L 141.370679 241.119276 
L 140.620517 240.629235 
L 138.841168 240.094641 
L 138.790733 241.011707 
L 140.579968 243.210709 
L 141.403369 244.439357 
L 142.186732 246.11426 
L 139.490207 245.206222 
L 135.602548 241.05354 
L 134.031264 240.103317 
L 132.556285 240.372255 
L 131.932841 241.071468 
L 131.405701 242.015645 
z
" style="fill:none;stroke:#999999;stroke-width:0.25;"/>
    <path clip-path="url(#p1b6a6fa96f)" d="M 117.821702 252.086627 
L 125.105361 244.106935 
L 126.650908 243.545631 
L 129.195766 243.276434 
L 130.209498 243.019506 
L 131.405701 242.015645 
L 131.932841 241.071468 
L 132.556285 240.372255 
L 134.031264 240.103317 
L 135.602548 241.05354 
L 139.490207 245.206222 
L 142.186732 246.11426 
L 141.403369 244.439357 
L 140.579968 243.210709 
L 138.790733 241.011707 
L 138.841168 240.094641 
L 140.620517 240.629235 
L 141.370679 241.119276 
L 142.186732 242.099303 
L 143.894869 241.011707 
L 141.603837 237.431567 
L 141.461914 235.703904 
L 142.617568 233.527561 
L 143.793496 232.511014 
L 147.290869 230.974084 
L 148.000481 230.250408 
L 148.279257 229.682205 
L 148.487072 229.030236 
L 148.993937 228.061196 
L 156.201567 234.831019 
L 157.828605 235.889235 
L 161.54393 237.628829 
L 165.639404 239.009579 
L 169.785565 239.864256 
L 173.698568 240.049529 
L 175.432048 239.655075 
L 178.174191 238.393938 
L 180.185627 243.667571 
L 179.753968 246.724745 
L 182.365695 250.28994 
L 183.048855 254.044683 
L 185.429036 254.200432 
L 186.774778 255.648097 
L 187.298093 258.810211 
L 191.66815 262.888768 
L 183.269327 263.186409 
L 183.269452 266.367529 
L 181.69978 266.382187 
L 181.986782 295.592404 
L 182.173383 307.799269 
L 157.755211 307.95986 
L 143.948425 308.162679 
L 143.774592 295.509107 
L 130.986081 295.63906 
L 130.67728 267.257264 
L 125.734902 264.523118 
L 122.831613 263.574726 
L 120.658612 261.016632 
L 120.585267 258.422411 
L 122.623899 255.750183 
z
" style="fill:none;stroke:#999999;stroke-width:0.25;"/>
    <path clip-path="url(#p1b6a6fa96f)" d="M 78.90456 253.698702 
L 78.610578 254.988219 
L 79.046482 255.883642 
L 81.114494 256.229856 
L 84.125276 253.041954 
L 83.197712 252.217989 
L 83.902255 249.435231 
L 83.80595 247.183513 
L 84.581455 245.660249 
L 90.238075 244.788026 
L 90.770284 245.463108 
L 90.927412 247.613579 
L 91.542031 248.59743 
L 93.441466 249.871196 
L 94.333549 250.211596 
L 96.913495 249.01717 
L 100.010444 244.118884 
L 102.448468 243.019506 
L 103.487542 243.521407 
L 103.974133 244.728283 
L 104.349214 246.245681 
L 105.038551 247.613579 
L 106.194205 248.431861 
L 107.329584 248.431861 
L 108.495375 248.151142 
L 109.716921 248.121278 
L 114.952843 251.083459 
L 117.821702 252.086627 
L 122.623899 255.750183 
L 120.585267 258.422411 
L 120.658612 261.016632 
L 122.831613 263.574726 
L 125.734902 264.523118 
L 130.67728 267.257264 
L 130.986081 295.63906 
L 131.144405 308.351175 
L 125.763972 308.226388 
L 119.315748 308.376599 
L 105.160422 308.32984 
L 87.993559 308.608781 
L 74.768005 308.586132 
L 74.622012 297.882208 
L 74.893444 295.987006 
L 68.617746 296.042876 
L 68.428654 270.12219 
L 80.6563 270.162929 
L 77.659212 268.382027 
L 73.938887 263.393869 
L 75.856226 260.394173 
L 78.707695 258.26067 
L 75.649569 257.684812 
L 75.661278 254.884372 
z
" style="fill:none;stroke:#999999;stroke-width:0.25;"/>
    <path clip-path="url(#p1b6a6fa96f)" d="M 67.372077 205.612356 
L 67.225771 208.253437 
L 67.979876 213.312666 
L 69.697874 219.981012 
L 68.835719 222.542683 
L 69.213906 225.423634 
L 74.271808 238.364051 
L 75.503492 238.579231 
L 78.093575 240.103317 
L 78.093575 241.011707 
L 76.937921 242.780498 
L 77.252178 245.81557 
L 79.021139 252.217989 
L 78.90456 253.698702 
L 75.661278 254.884372 
L 75.649569 257.684812 
L 78.707695 258.26067 
L 75.856226 260.394173 
L 73.938887 263.393869 
L 77.659212 268.382027 
L 80.6563 270.162929 
L 68.428654 270.12219 
L 68.617746 296.042876 
L 34.845693 296.109567 
L 35.122883 293.770057 
L 32.835638 292.018061 
L 31.972428 289.785683 
L 29.225928 289.378835 
L 26.353623 285.404546 
L 24.568533 284.945951 
L 25.705533 282.353414 
L 21.997481 281.904268 
L 20.584224 278.488238 
L 16.759586 276.186958 
L 17.028826 274.636327 
L 14.518197 273.648402 
L 11.369278 273.446411 
L 10.345269 270.555622 
L 8.860901 269.027817 
L 4.366805 267.323088 
L 1.664518 263.696861 
L -1.793896 264.274715 
L -1.891407 258.013693 
L 4.491768 257.941645 
L 4.316503 232.268576 
L 14.835461 232.279893 
L 27.904061 232.061795 
L 29.603906 231.67644 
L 41.457477 231.588992 
L 43.168195 231.281921 
L 45.702409 225.114406 
L 47.491344 223.101173 
L 46.931564 219.429028 
L 51.730966 215.797635 
L 51.374837 209.527835 
L 53.402507 204.951634 
L 52.62132 202.889135 
L 54.814452 196.042633 
L 54.82778 205.743568 
z
" style="fill:none;stroke:#999999;stroke-width:0.25;"/>
    <path clip-path="url(#p1b6a6fa96f)" d="M 130.134045 199.244817 
L 92.626469 199.494108 
L 92.538898 205.970207 
L 79.876263 206.207295 
L 67.372077 205.612356 
L 54.82778 205.743568 
L 54.814452 196.042633 
L 54.641179 180.128785 
L 62.938729 180.018119 
L 72.448007 180.242033 
L 72.365981 148.677682 
L 71.828348 148.681232 
L 71.771545 145.43265 
L 85.246049 145.832407 
L 105.59982 145.725245 
L 104.859702 148.137689 
L 106.872244 148.968643 
L 111.091528 152.253817 
L 113.310419 153.273799 
L 116.726872 153.973854 
L 117.335111 158.184463 
L 117.958556 161.570001 
L 118.338705 164.341514 
L 119.007768 167.593226 
L 120.178627 170.687905 
L 124.370406 176.430633 
L 125.874695 178.098774 
L 125.363862 180.00954 
L 125.252352 182.72909 
L 126.340375 184.208781 
L 132.662727 190.764343 
L 135.38991 192.556372 
L 130.106516 192.877404 
z
" style="fill:none;stroke:#999999;stroke-width:0.25;"/>
    <path clip-path="url(#p1b6a6fa96f)" d="M 255.059431 281.602345 
L 252.91675 282.671281 
L 252.559864 295.456969 
L 252.787946 300.871224 
L 242.303867 301.011285 
L 242.338871 303.101064 
L 231.214799 303.351903 
L 227.669619 307.114007 
L 226.473416 308.719384 
L 225.571195 310.461297 
L 224.253344 314.134618 
L 223.166701 317.782838 
L 222.636443 319.838736 
L 207.62347 320.534654 
L 207.747913 307.842816 
L 196.000972 307.842961 
L 194.966939 304.657037 
L 194.842247 296.133413 
L 192.58758 295.051229 
L 184.59522 295.098765 
L 181.986782 295.592404 
L 181.69978 266.382187 
L 183.269452 266.367529 
L 183.269327 263.186409 
L 191.66815 262.888768 
L 194.243952 262.805045 
L 194.312099 258.373304 
L 196.814733 260.369098 
L 197.64455 263.070244 
L 196.680499 264.601975 
L 196.970732 266.970678 
L 199.715785 269.089164 
L 209.267137 268.902904 
L 237.240334 268.901439 
L 252.157326 268.731873 
L 252.91675 281.616987 
z
" style="fill:none;stroke:#999999;stroke-width:0.25;"/>
    <path clip-path="url(#p1b6a6fa96f)" d="M 71.828348 148.681232 
L 72.365981 148.677682 
L 72.448007 180.242033 
L 62.938729 180.018119 
L 54.641179 180.128785 
L 29.166428 180.406921 
L 27.867378 180.835475 
L 17.267638 180.942077 
L 17.227964 174.507228 
L 4.559785 174.59816 
L 4.692699 170.449456 
L 4.468104 155.560613 
L 17.347985 155.14667 
L 18.215223 142.166672 
L 21.9064 136.375048 
L 32.199144 136.730819 
L 32.214964 126.971933 
L 38.084449 121.646454 
L 41.84638 121.148559 
L 41.891225 123.278298 
L 44.059941 123.280818 
L 47.480433 119.519706 
L 48.838714 119.508439 
L 53.683384 119.574855 
L 53.839093 131.527574 
L 60.81897 132.662049 
L 60.852852 141.506039 
L 63.146758 141.478216 
L 63.056073 144.414711 
L 65.249951 144.406425 
L 65.252443 146.586907 
z
" style="fill:none;stroke:#999999;stroke-width:0.25;"/>
    <path clip-path="url(#p1b6a6fa96f)" d="M 4.559785 174.59816 
L 17.227964 174.507228 
L 17.267638 180.942077 
L 27.867378 180.835475 
L 29.166428 180.406921 
L 54.641179 180.128785 
L 54.814452 196.042633 
L 52.62132 202.889135 
L 53.402507 204.951634 
L 51.374837 209.527835 
L 51.730966 215.797635 
L 46.931564 219.429028 
L 47.491344 223.101173 
L 45.702409 225.114406 
L 43.168195 231.281921 
L 41.457477 231.588992 
L 29.603906 231.67644 
L 27.904061 232.061795 
L 14.835461 232.279893 
L 4.316503 232.268576 
L 4.491768 257.941645 
L -1.891407 258.013693 
L -8.281483 258.061334 
L -8.306147 232.406134 
L -8.394962 206.855949 
L -2.006779 206.833273 
L -1.792398 193.929859 
L -1.789907 181.07516 
L 4.536491 181.044324 
z
" style="fill:none;stroke:#999999;stroke-width:0.25;"/>
    <path clip-path="url(#p1b6a6fa96f)" d="M 48.838714 119.508439 
L 47.480433 119.519706 
L 44.059941 123.280818 
L 41.891225 123.278298 
L 41.84638 121.148559 
L 38.084449 121.646454 
L 32.214964 126.971933 
L 32.199144 136.730819 
L 21.9064 136.375048 
L 18.215223 142.166672 
L 17.347985 155.14667 
L 4.468104 155.560613 
L -20.142774 155.376704 
L -33.518234 154.605533 
L -32.384861 153.314684 
L -46.634057 153.508876 
L -46.545053 142.177917 
L -47.482546 142.162526 
L -47.228752 129.205896 
L -47.184954 128.487692 
L -47.427984 114.50421 
L -47.388246 95.416128 
L -47.694058 78.23891 
L -34.735077 79.022981 
L -26.016615 78.709776 
L -26.013126 70.061008 
L -21.650449 69.91779 
L -21.663861 65.591649 
L -15.798611 65.988248 
L 4.248247 66.74345 
L 10.798367 66.802846 
L 10.808083 68.980803 
L 17.348861 68.931985 
L 17.385608 79.826188 
L 18.732611 79.497558 
L 16.681421 81.0869 
L 13.859591 83.091819 
L 15.225611 88.435789 
L 17.899198 88.513214 
L 17.864195 90.595194 
L 21.605199 90.764727 
L 21.61616 92.97395 
L 23.788489 93.123397 
L 26.04789 95.243095 
L 25.97153 97.448426 
L 28.122308 97.514659 
L 28.127914 101.843028 
L 32.41502 103.008556 
L 32.436197 105.241044 
L 34.604663 105.257963 
L 34.650504 108.502915 
L 36.825822 108.517752 
L 36.846749 110.657897 
L 41.194832 110.745498 
L 41.23787 112.993176 
L 46.128256 113.018243 
L 46.122152 114.651037 
L 48.836722 115.204054 
z
" style="fill:none;stroke:#999999;stroke-width:0.25;"/>
    <path clip-path="url(#p1b6a6fa96f)" d="M 53.683384 119.574855 
L 48.838714 119.508439 
L 48.836722 115.204054 
L 46.122152 114.651037 
L 46.128256 113.018243 
L 41.23787 112.993176 
L 41.194832 110.745498 
L 36.846749 110.657897 
L 36.825822 108.517752 
L 34.650504 108.502915 
L 34.604663 105.257963 
L 32.436197 105.241044 
L 32.41502 103.008556 
L 28.127914 101.843028 
L 28.122308 97.514659 
L 25.97153 97.448426 
L 26.04789 95.243095 
L 23.788489 93.123397 
L 21.61616 92.97395 
L 21.605199 90.764727 
L 17.864195 90.595194 
L 17.899198 88.513214 
L 15.225611 88.435789 
L 13.859591 83.091819 
L 16.681421 81.0869 
L 18.732611 79.497558 
L 23.310571 76.614921 
L 33.165006 69.918852 
L 32.497236 67.153858 
L 34.660845 67.163385 
L 34.728485 65.002834 
L 39.040132 65.059707 
L 39.030914 62.857253 
L 45.476024 62.909073 
L 45.479886 58.586455 
L 49.832888 58.662721 
L 49.882591 54.322117 
L 52.070864 54.346704 
L 51.965356 47.84279 
L 54.118252 45.664932 
L 54.126847 41.317489 
L 56.293944 41.340609 
L 56.284477 39.15298 
L 60.64894 39.269047 
L 60.642836 37.073897 
L 62.79212 37.129404 
L 62.799469 34.966118 
L 64.926829 34.964028 
L 71.447676 30.818475 
L 87.026057 31.188771 
L 101.212773 41.274981 
L 100.904469 42.336368 
L 110.057422 42.443606 
L 113.983408 42.445148 
L 113.999353 46.84881 
L 116.187875 48.995608 
L 116.144151 58.708752 
L 115.055931 61.939951 
L 112.915243 64.081815 
L 112.841831 72.871633 
L 117.220536 75.09689 
L 117.168716 78.343473 
L 113.937815 78.305399 
L 111.759383 79.3286 
L 108.468066 84.672306 
L 106.292561 86.824991 
L 97.584376 86.909485 
L 97.580389 89.106447 
L 95.391992 89.07316 
L 94.353599 92.284931 
L 92.187001 92.220602 
L 92.139167 94.369118 
L 87.871991 94.221765 
L 87.848074 96.921376 
L 86.781653 98.520288 
L 83.56369 97.411048 
L 68.311068 112.045423 
L 60.207843 119.55931 
z
" style="fill:none;stroke:#999999;stroke-width:0.25;"/>
    <path clip-path="url(#p1b6a6fa96f)" d="M 71.828348 148.681232 
L 65.252443 146.586907 
L 65.249951 144.406425 
L 63.056073 144.414711 
L 63.146758 141.478216 
L 60.852852 141.506039 
L 60.81897 132.662049 
L 53.839093 131.527574 
L 53.683384 119.574855 
L 60.207843 119.55931 
L 68.311068 112.045423 
L 83.56369 97.411048 
L 86.781653 98.520288 
L 87.848074 96.921376 
L 87.871991 94.221765 
L 92.139167 94.369118 
L 92.187001 92.220602 
L 94.353599 92.284931 
L 95.391992 89.07316 
L 97.580389 89.106447 
L 97.584376 86.909485 
L 106.292561 86.824991 
L 108.468066 84.672306 
L 111.759383 79.3286 
L 113.937815 78.305399 
L 117.168716 78.343473 
L 117.220536 75.09689 
L 121.609539 75.080437 
L 121.560833 81.554376 
L 134.4807 81.574153 
L 134.457032 95.34563 
L 137.072352 97.98215 
L 137.5185 98.735669 
L 137.939198 99.913814 
L 137.538775 101.418057 
L 135.785019 103.610673 
L 135.371334 105.174275 
L 135.952127 109.267223 
L 135.415008 111.719487 
L 133.149318 112.667092 
L 130.898835 112.817978 
L 129.134943 113.445645 
L 127.989426 114.821577 
L 127.573796 117.174803 
L 127.077068 117.331669 
L 124.95837 118.459844 
L 123.767236 119.346628 
L 123.71148 120.746054 
L 124.253827 123.345445 
L 123.458048 124.286163 
L 121.785391 124.666048 
L 120.269863 125.763432 
L 120.001224 128.862131 
L 120.822346 130.766798 
L 124.253827 135.021141 
L 123.311057 136.780317 
L 119.707242 138.551299 
L 118.227194 139.97875 
L 117.608818 141.875751 
L 117.233738 144.452815 
L 117.132365 146.800627 
L 117.465537 148.162352 
L 116.863726 148.865143 
L 116.706598 149.587345 
L 116.595087 151.314448 
L 116.726872 153.973854 
L 113.310419 153.273799 
L 111.091528 152.253817 
L 106.872244 148.968643 
L 104.859702 148.137689 
L 105.59982 145.725245 
L 85.246049 145.832407 
L 71.771545 145.43265 
z
" style="fill:none;stroke:#999999;stroke-width:0.25;"/>
    <path clip-path="url(#p1b6a6fa96f)" d="M 125.20443 -31.472994 
L 130.651756 -23.31775 
L 143.791259 -7.462123 
L 141.397342 -3.428901 
L 140.19423 0.40622 
L 140.148264 9.396614 
L 139.2383 11.717088 
L 135.568299 16.376032 
L 141.029552 16.326622 
L 141.444635 17.316073 
L 138.058399 21.276028 
L 138.93149 24.303804 
L 132.825328 29.378246 
L 132.254623 30.722039 
L 128.30366 33.736657 
L 122.945649 34.149178 
L 121.016849 35.248024 
L 117.849353 35.606176 
L 116.599196 36.965124 
L 109.653949 36.954232 
L 110.057422 42.443606 
L 100.904469 42.336368 
L 101.212773 41.274981 
L 87.026057 31.188771 
L 71.447676 30.818475 
L 64.926829 34.964028 
L 62.799469 34.966118 
L 62.719747 30.552894 
L 63.734072 24.358771 
L 65.026579 23.252614 
L 65.74126 18.754053 
L 66.577588 16.923775 
L 68.189421 15.865619 
L 69.998931 15.008082 
L 78.123987 12.429039 
L 82.006577 10.835121 
L 83.729921 9.770369 
L 85.296135 7.543225 
L 88.59583 3.568681 
L 91.403866 0.573248 
L 92.78254 -1.667705 
L 93.294475 -4.676569 
L 93.238719 -7.040312 
L 93.46174 -8.752476 
L 94.906307 -9.8067 
L 96.766504 -10.562383 
L 103.183423 -12.524935 
L 105.023345 -13.536805 
L 106.508461 -14.890156 
L 109.199918 -17.896094 
L 111.688628 -21.152832 
L 121.268388 -35.366759 
z
" style="fill:none;stroke:#999999;stroke-width:0.25;"/>
    <path clip-path="url(#p1b6a6fa96f)" d="M 141.029552 16.326622 
L 135.568299 16.376032 
L 139.2383 11.717088 
L 140.148264 9.396614 
L 140.19423 0.40622 
L 141.397342 -3.428901 
L 143.791259 -7.462123 
L 156.067463 -18.614101 
L 161.069861 -21.101499 
L 168.34693 -20.515074 
L 168.379791 -22.699563 
L 181.59827 -22.465808 
L 201.061979 -22.58132 
L 201.500147 -10.928053 
L 203.948308 -11.903224 
L 205.458767 -12.171409 
L 206.137967 -11.440008 
L 206.533322 -10.513628 
L 214.315361 8.932143 
L 214.109949 12.088022 
L 213.861686 17.044532 
L 205.134006 15.286008 
L 196.322616 14.802916 
L 194.092862 15.894031 
L 194.105319 21.363129 
L 189.782711 21.363278 
L 189.757797 19.1819 
L 185.435189 20.138167 
L 185.435188 23.37997 
L 183.280175 23.260472 
L 182.096786 27.561712 
L 178.920196 27.382523 
L 178.94511 29.562485 
L 175.519385 29.383324 
L 174.463935 30.374082 
L 174.235845 29.074045 
L 172.968681 25.926673 
L 171.745273 27.361097 
L 169.43789 27.482419 
L 167.810976 24.272159 
L 168.180758 21.913734 
L 164.224925 22.510579 
L 163.134987 19.438513 
L 161.019361 18.336905 
L 160.745908 12.917399 
L 157.920809 11.367077 
L 156.761603 9.018066 
L 153.014977 9.97001 
L 150.852107 11.643756 
L 148.245811 11.049831 
L 147.187172 8.940512 
L 145.46168 9.806493 
L 141.885852 14.440433 
z
" style="fill:none;stroke:#999999;stroke-width:0.25;"/>
    <path clip-path="url(#p1b6a6fa96f)" d="M 110.057422 42.443606 
L 109.653949 36.954232 
L 116.599196 36.965124 
L 117.849353 35.606176 
L 121.016849 35.248024 
L 122.945649 34.149178 
L 128.30366 33.736657 
L 132.254623 30.722039 
L 132.825328 29.378246 
L 138.93149 24.303804 
L 138.058399 21.276028 
L 141.444635 17.316073 
L 141.029552 16.326622 
L 141.885852 14.440433 
L 145.46168 9.806493 
L 147.187172 8.940512 
L 148.245811 11.049831 
L 150.852107 11.643756 
L 153.014977 9.97001 
L 156.761603 9.018066 
L 157.920809 11.367077 
L 160.745908 12.917399 
L 161.019361 18.336905 
L 163.134987 19.438513 
L 164.224925 22.510579 
L 168.180758 21.913734 
L 167.810976 24.272159 
L 169.43789 27.482419 
L 171.745273 27.361097 
L 172.968681 25.926673 
L 174.235845 29.074045 
L 174.463935 30.374082 
L 174.639207 34.032541 
L 174.083786 34.625605 
L 173.779666 35.305716 
L 173.739117 36.21045 
L 174.40818 37.667604 
L 175.432048 38.632875 
L 176.258239 39.634495 
L 176.364681 41.206574 
L 172.74566 43.967862 
L 169.902144 45.066141 
L 167.484395 46.55261 
L 165.264548 48.372539 
L 164.382378 49.955664 
L 163.73359 53.557904 
L 162.025453 54.230936 
L 159.557017 53.618539 
L 156.69807 53.484873 
L 159.948494 58.605956 
L 160.814044 60.444188 
L 160.474444 61.650116 
L 158.289853 62.443906 
L 157.945184 64.358492 
L 157.904635 66.721033 
L 156.647608 68.853001 
L 156.003889 69.27693 
L 155.644014 70.554685 
L 156.855423 72.619413 
L 156.819943 74.956208 
L 153.799024 78.950771 
L 152.610312 80.300551 
L 151.849475 81.030565 
L 150.83386 81.419511 
L 147.787597 81.939821 
L 144.857914 83.08927 
L 141.836995 88.635415 
L 140.493801 90.189355 
L 139.29253 91.966782 
L 137.665491 93.351069 
L 134.457032 95.34563 
L 134.4807 81.574153 
L 121.560833 81.554376 
L 121.609539 75.080437 
L 117.220536 75.09689 
L 112.841831 72.871633 
L 112.915243 64.081815 
L 115.055931 61.939951 
L 116.144151 58.708752 
L 116.187875 48.995608 
L 113.999353 46.84881 
L 113.983408 42.445148 
z
" style="fill:none;stroke:#999999;stroke-width:0.25;"/>
    <path clip-path="url(#p1b6a6fa96f)" d="M 63.734072 24.358771 
L 62.719747 30.552894 
L 62.799469 34.966118 
L 62.79212 37.129404 
L 60.642836 37.073897 
L 60.64894 39.269047 
L 56.284477 39.15298 
L 56.293944 41.340609 
L 54.126847 41.317489 
L 54.118252 45.664932 
L 51.965356 47.84279 
L 52.070864 54.346704 
L 49.882591 54.322117 
L 49.832888 58.662721 
L 45.479886 58.586455 
L 45.476024 62.909073 
L 39.030914 62.857253 
L 39.040132 65.059707 
L 34.728485 65.002834 
L 34.660845 67.163385 
L 32.497236 67.153858 
L 33.165006 69.918852 
L 23.310571 76.614921 
L 18.732611 79.497558 
L 17.385608 79.826188 
L 17.348861 68.931985 
L 10.808083 68.980803 
L 10.798367 66.802846 
L 4.248247 66.74345 
L 4.230684 53.783142 
L -8.786096 53.345777 
L -9.192434 27.15509 
L -22.203858 26.501165 
L -22.188785 20.040592 
L -22.211954 7.042204 
L -5.257852 7.875561 
L 30.028939 8.282948 
L 31.839801 9.723165 
L 33.654455 6.918592 
L 36.033233 6.60986 
L 38.213381 8.384942 
L 40.292021 12.528889 
L 41.381298 12.946107 
L 42.836002 14.15657 
L 45.187859 18.547324 
L 43.60137 21.623591 
L 56.075507 21.696036 
L 56.110954 24.639875 
L 61.848532 24.735571 
z
" style="fill:none;stroke:#999999;stroke-width:0.25;"/>
    <path clip-path="url(#p1b6a6fa96f)" d="M 125.20443 -31.472994 
L 121.268388 -35.366759 
L 111.688628 -21.152832 
L 109.199918 -17.896094 
L 106.508461 -14.890156 
L 105.023345 -13.536805 
L 103.183423 -12.524935 
L 96.766504 -10.562383 
L 94.906307 -9.8067 
L 93.46174 -8.752476 
L 93.238719 -7.040312 
L 93.294475 -4.676569 
L 92.78254 -1.667705 
L 91.403866 0.573248 
L 88.59583 3.568681 
L 85.296135 7.543225 
L 83.729921 9.770369 
L 82.006577 10.835121 
L 78.123987 12.429039 
L 69.998931 15.008082 
L 68.189421 15.865619 
L 66.577588 16.923775 
L 65.74126 18.754053 
L 65.026579 23.252614 
L 63.734072 24.358771 
L 61.848532 24.735571 
L 56.110954 24.639875 
L 56.075507 21.696036 
L 43.60137 21.623591 
L 45.187859 18.547324 
L 42.836002 14.15657 
L 41.381298 12.946107 
L 40.292021 12.528889 
L 38.213381 8.384942 
L 43.076985 8.510564 
L 43.056308 -11.352802 
L 43.336212 -37.472186 
L 43.311299 -39.6488 
L 45.569828 -39.423165 
L 60.312986 -39.310873 
L 75.107216 -38.832448 
L 109.10461 -38.281989 
L 122.110803 -37.991382 
L 122.175578 -35.979994 
L 124.361608 -35.948327 
z
" style="fill:none;stroke:#999999;stroke-width:0.25;"/>
    <path clip-path="url(#p1b6a6fa96f)" d="M 252.157326 268.731873 
L 237.240334 268.901439 
L 209.267137 268.902904 
L 199.715785 269.089164 
L 196.970732 266.970678 
L 196.680499 264.601975 
L 197.64455 263.070244 
L 196.814733 260.369098 
L 194.312099 258.373304 
L 194.243952 262.805045 
L 191.66815 262.888768 
L 187.298093 258.810211 
L 186.774778 255.648097 
L 185.429036 254.200432 
L 183.048855 254.044683 
L 182.365695 250.28994 
L 179.753968 246.724745 
L 180.185627 243.667571 
L 178.174191 238.393938 
L 180.419606 236.720204 
L 182.122674 234.795145 
L 184.008214 234.113535 
L 187.840118 233.874365 
L 191.706279 233.905776 
L 193.770446 233.671068 
L 194.976786 232.875784 
L 195.448171 231.332916 
L 206.862492 230.612034 
L 206.668749 217.854184 
L 217.388675 217.730204 
L 217.376219 215.684956 
L 219.481405 215.655673 
L 219.506319 217.700779 
L 223.791557 217.65664 
L 223.81647 219.773883 
L 245.205291 230.215026 
L 251.530069 230.19239 
L 252.094283 243.024118 
L 252.006663 256.705833 
z
" style="fill:none;stroke:#999999;stroke-width:0.25;"/>
    <path clip-path="url(#p1b6a6fa96f)" d="M 74.768005 308.586132 
L 68.370728 308.658314 
L 68.609996 327.790931 
L 30.359651 328.103211 
L 28.590796 327.677166 
L -5.387166 327.997429 
L -20.218144 328.303825 
L -20.322656 321.988883 
L -21.827553 321.165 
L -26.038424 321.207626 
L -26.154645 304.320561 
L -26.176569 302.741451 
L -20.547872 302.25568 
L -20.703083 283.696348 
L -8.001021 283.630252 
L -8.171615 265.753757 
L -5.785218 263.70799 
L -1.793896 264.274715 
L 1.664518 263.696861 
L 4.366805 267.323088 
L 8.860901 269.027817 
L 10.345269 270.555622 
L 11.369278 273.446411 
L 14.518197 273.648402 
L 17.028826 274.636327 
L 16.759586 276.186958 
L 20.584224 278.488238 
L 21.997481 281.904268 
L 25.705533 282.353414 
L 24.568533 284.945951 
L 26.353623 285.404546 
L 29.225928 289.378835 
L 31.972428 289.785683 
L 32.835638 292.018061 
L 35.122883 293.770057 
L 34.845693 296.109567 
L 68.617746 296.042876 
L 74.893444 295.987006 
L 74.622012 297.882208 
z
" style="fill:none;stroke:#999999;stroke-width:0.25;"/>
    <path clip-path="url(#p1b6a6fa96f)" d="M 232.271601 140.182455 
L 232.212305 180.42493 
L 232.274837 196.129149 
L 230.156945 196.188098 
L 230.144488 198.28061 
L 221.474482 198.486896 
L 221.491049 200.638116 
L 219.369171 200.711629 
L 219.481405 215.655673 
L 217.376219 215.684956 
L 217.388675 217.730204 
L 206.668749 217.854184 
L 206.862492 230.612034 
L 195.448171 231.332916 
L 195.362004 229.269495 
L 194.444577 222.85586 
L 194.53356 219.020232 
L 193.587975 211.330934 
L 194.520607 205.393873 
L 192.462733 202.936781 
L 192.300536 195.832578 
L 193.296497 192.268004 
L 187.217489 192.252965 
L 187.130293 190.144886 
L 184.987611 190.130142 
L 185.062476 192.238223 
L 180.700131 192.229231 
L 180.452493 142.710228 
L 184.763766 142.673676 
L 184.744458 140.486463 
L 206.323182 140.632547 
L 224.755275 140.286802 
z
" style="fill:none;stroke:#999999;stroke-width:0.25;"/>
    <path clip-path="url(#p1b6a6fa96f)" d="M 214.109949 12.088022 
L 240.212146 13.953726 
L 240.129682 16.129581 
L 239.831842 23.940407 
L 231.190237 23.850189 
L 231.184258 26.0557 
L 226.905373 25.915618 
L 226.796999 30.309112 
L 233.265154 30.395253 
L 233.167493 36.936182 
L 230.99915 36.899029 
L 230.989559 39.075709 
L 228.819473 39.047513 
L 228.775127 41.201002 
L 226.681525 41.225763 
L 226.616002 59.846733 
L 224.502095 61.378521 
L 224.469459 63.010933 
L 220.1253 62.918164 
L 220.216483 65.133709 
L 215.856255 65.039615 
L 215.910691 67.140171 
L 213.701366 67.054875 
L 213.469297 73.592408 
L 206.999921 73.566787 
L 207.120727 69.202724 
L 182.225711 69.068623 
L 181.847089 66.915765 
L 179.039841 66.882941 
L 178.33149 60.066123 
L 175.178942 55.943673 
L 162.025453 54.230936 
L 163.73359 53.557904 
L 164.382378 49.955664 
L 165.264548 48.372539 
L 167.484395 46.55261 
L 169.902144 45.066141 
L 172.74566 43.967862 
L 176.364681 41.206574 
L 176.258239 39.634495 
L 175.432048 38.632875 
L 174.40818 37.667604 
L 173.739117 36.21045 
L 173.779666 35.305716 
L 174.083786 34.625605 
L 174.639207 34.032541 
L 174.463935 30.374082 
L 175.519385 29.383324 
L 178.94511 29.562485 
L 178.920196 27.382523 
L 182.096786 27.561712 
L 183.280175 23.260472 
L 185.435188 23.37997 
L 185.435189 20.138167 
L 189.757797 19.1819 
L 189.782711 21.363278 
L 194.105319 21.363129 
L 194.092862 15.894031 
L 196.322616 14.802916 
L 205.134006 15.286008 
L 213.861686 17.044532 
z
" style="fill:none;stroke:#999999;stroke-width:0.25;"/>
    <path clip-path="url(#p1b6a6fa96f)" d="M 135.38991 192.556372 
L 132.662727 190.764343 
L 126.340375 184.208781 
L 125.252352 182.72909 
L 125.363862 180.00954 
L 125.874695 178.098774 
L 124.370406 176.430633 
L 120.178627 170.687905 
L 119.007768 167.593226 
L 118.338705 164.341514 
L 117.958556 161.570001 
L 117.335111 158.184463 
L 116.726872 153.973854 
L 116.595087 151.314448 
L 116.706598 149.587345 
L 116.863726 148.865143 
L 117.465537 148.162352 
L 117.132365 146.800627 
L 117.233738 144.452815 
L 117.608818 141.875751 
L 118.227194 139.97875 
L 134.177376 140.825393 
L 159.874131 140.610788 
L 180.234251 140.582372 
L 180.452493 142.710228 
L 180.700131 192.229231 
L 141.797776 192.419101 
L 141.840627 190.335523 
L 139.656838 190.291881 
L 139.644257 192.406718 
z
" style="fill:none;stroke:#999999;stroke-width:0.25;"/>
    <path clip-path="url(#p1b6a6fa96f)" d="M 200.040289 82.132248 
L 197.874722 83.185397 
L 197.781919 85.388054 
L 195.573466 86.477424 
L 208.658883 86.489167 
L 208.664613 84.36519 
L 210.789481 84.389124 
L 210.814893 82.141838 
L 226.005247 82.544465 
L 225.879309 92.337082 
L 225.203905 108.043097 
L 224.809649 124.66484 
L 224.755275 140.286802 
L 206.323182 140.632547 
L 184.744458 140.486463 
L 184.763766 142.673676 
L 180.452493 142.710228 
L 180.234251 140.582372 
L 159.874131 140.610788 
L 160.065816 127.100394 
L 166.576075 127.273742 
L 166.887182 112.18123 
L 184.049623 112.496881 
L 184.534938 99.48523 
L 188.911608 99.502677 
L 188.969594 97.378116 
L 191.092283 97.30468 
L 191.203397 89.121163 
L 193.386563 88.664801 
L 193.440003 82.132619 
z
" style="fill:none;stroke:#999999;stroke-width:0.25;"/>
    <path clip-path="url(#p1b6a6fa96f)" d="M 200.040289 82.132248 
L 193.440003 82.132619 
L 193.386563 88.664801 
L 191.203397 89.121163 
L 191.092283 97.30468 
L 188.969594 97.378116 
L 188.911608 99.502677 
L 184.534938 99.48523 
L 184.049623 112.496881 
L 166.887182 112.18123 
L 166.576075 127.273742 
L 160.065816 127.100394 
L 159.874131 140.610788 
L 134.177376 140.825393 
L 118.227194 139.97875 
L 119.707242 138.551299 
L 123.311057 136.780317 
L 124.253827 135.021141 
L 120.822346 130.766798 
L 120.001224 128.862131 
L 120.269863 125.763432 
L 121.785391 124.666048 
L 123.458048 124.286163 
L 124.253827 123.345445 
L 123.71148 120.746054 
L 123.767236 119.346628 
L 124.95837 118.459844 
L 127.077068 117.331669 
L 127.573796 117.174803 
L 127.989426 114.821577 
L 129.134943 113.445645 
L 130.898835 112.817978 
L 133.149318 112.667092 
L 135.415008 111.719487 
L 135.952127 109.267223 
L 135.371334 105.174275 
L 135.785019 103.610673 
L 137.538775 101.418057 
L 137.939198 99.913814 
L 137.5185 98.735669 
L 137.072352 97.98215 
L 134.457032 95.34563 
L 137.665491 93.351069 
L 139.29253 91.966782 
L 140.493801 90.189355 
L 141.836995 88.635415 
L 144.857914 83.08927 
L 147.787597 81.939821 
L 150.83386 81.419511 
L 151.849475 81.030565 
L 152.610312 80.300551 
L 153.799024 78.950771 
L 156.819943 74.956208 
L 156.855423 72.619413 
L 155.644014 70.554685 
L 156.003889 69.27693 
L 156.647608 68.853001 
L 157.904635 66.721033 
L 157.945184 64.358492 
L 158.289853 62.443906 
L 160.474444 61.650116 
L 160.814044 60.444188 
L 159.948494 58.605956 
L 156.69807 53.484873 
L 159.557017 53.618539 
L 162.025453 54.230936 
L 175.178942 55.943673 
L 178.33149 60.066123 
L 179.039841 66.882941 
L 181.847089 66.915765 
L 182.225711 69.068623 
L 207.120727 69.202724 
L 206.999921 73.566787 
L 206.900367 75.708808 
z
" style="fill:none;stroke:#999999;stroke-width:0.25;"/>
    <path clip-path="url(#p1b6a6fa96f)" d="M 315.785857 -4.972801 
L 338.449914 -4.952839 
L 338.81909 -4.509009 
L 338.594868 15.206048 
L 340.613232 15.217332 
L 340.525137 36.33792 
L 340.358615 38.952783 
L 321.315022 41.011867 
L 318.408494 40.127738 
L 309.749201 37.305929 
L 301.43765 35.470147 
L 301.592413 21.67268 
L 299.885393 21.648448 
L 299.954479 14.453744 
L 308.817439 14.639395 
L 315.03291 -3.340327 
z
" style="fill:none;stroke:#999999;stroke-width:0.25;"/>
    <path clip-path="url(#p1b6a6fa96f)" d="M 303.34031 93.071696 
L 304.04413 91.93051 
L 308.49441 88.738211 
L 312.904141 90.189355 
L 319.194343 84.020852 
L 320.988648 83.08322 
L 323.264474 82.302816 
L 325.677155 80.41513 
L 353.369165 80.339686 
L 354.808948 81.555319 
L 352.762185 85.664792 
L 352.635749 90.881068 
L 354.913378 97.652976 
L 356.697779 99.445279 
L 357.709348 102.946876 
L 364.994913 107.651546 
L 366.625365 111.04679 
L 366.277258 112.625685 
L 368.753434 117.946345 
L 367.484912 119.274008 
L 368.146285 123.329682 
L 324.553144 122.964704 
L 324.56012 127.787554 
L 323.307868 127.780605 
L 323.335499 122.924613 
L 313.758769 122.801228 
L 311.820129 116.73575 
L 312.53801 114.263818 
L 310.649009 112.97754 
z
" style="fill:none;stroke:#999999;stroke-width:0.25;"/>
   </g>
   <g id="PathCollection_2">
    <path clip-path="url(#p1b6a6fa96f)" d="M 4.760595 523.491955 
L 3.858036 522.982335 
L 3.858036 523.866009 
L 4.760257 525.147528 
L 5.713165 526.153936 
L 6.833338 527.019856 
L 8.186669 527.797967 
L 7.259105 527.797967 
L 7.061427 529.16687 
L 1.729201 534.261043 
L 0.421488 536.605724 
L -0.470596 538.9617 
L -1.981056 540.797097 
L -5.113485 541.533526 
L -6.948339 542.375111 
L -8.063443 544.180841 
L -9.502941 545.916225 
L -12.381938 546.529693 
L -14.333371 546.208356 
L -14.880786 545.647459 
L -15.002433 544.782699 
L -15.701908 543.584801 
L -17.866224 541.586126 
L -18.40857 540.639286 
L -19.184075 540.639286 
L -18.955985 543.04133 
L -18.119657 544.58403 
L -17.622928 546.109032 
L -18.40857 548.486766 
L -17.024827 548.597756 
L -15.671496 548.440033 
L -14.424606 548.036956 
L -13.299365 547.41187 
L -16.48755 552.83224 
L -24.506164 556.172194 
L -40.943816 558.373091 
L -56.367736 558.373091 
L -67.341377 560.258464 
L -71.294929 560.235117 
L -69.804744 558.793382 
L -67.011914 557.573336 
L -62.247377 556.411566 
L -61.167754 555.798533 
L -60.432799 554.730039 
L -59.540715 554.379696 
L -56.894877 556.779373 
L -51.97828 557.690091 
L -47.386078 556.160518 
L -41.673702 554.624937 
L -38.171261 552.23657 
L -39.666514 547.41187 
L -45.551224 541.860815 
L -46.473719 540.10739 
L -46.159463 538.534964 
L -45.064633 535.360344 
L -45.277517 534.261043 
L -46.412896 533.132415 
L -46.919761 533.138263 
L -47.345528 533.834164 
L -48.99791 535.869034 
L -48.805301 536.564797 
L -48.947224 536.845432 
L -50.802352 536.716808 
L -52.231713 536.430325 
L -53.468465 535.904115 
L -54.553157 535.167388 
L -55.516202 534.261043 
L -56.499521 532.986213 
L -57.148309 531.582595 
L -57.492978 530.038451 
L -57.609557 528.330334 
L -57.989706 526.56935 
L -58.831103 525.042202 
L -59.707981 523.825045 
L -60.159091 522.982335 
L -59.920864 520.582671 
L -58.902064 517.807908 
L -57.574076 515.255103 
L -56.367736 513.510025 
L -55.941969 511.395726 
L -56.636375 508.50781 
L -60.382112 497.559878 
L -61.791198 495.730469 
L -64.487723 494.287879 
L -66.069144 494.018109 
L -67.402201 493.988786 
L -68.319628 493.513744 
L -68.664296 491.824571 
L -68.623747 489.759745 
L -68.770738 487.917565 
L -69.531036 486.661926 
L -71.294929 486.321592 
L -70.382571 488.357599 
L -70.407914 490.405036 
L -71.294929 492.158903 
L -72.997997 493.314338 
L -72.23263 495.331719 
L -72.932105 496.7742 
L -74.087758 498.333786 
L -74.695997 500.72559 
L -74.858194 503.597552 
L -75.375197 505.519675 
L -76.297692 507.007964 
L -77.635818 508.589828 
L -78.076791 509.597439 
L -78.198438 510.90371 
L -78.102134 513.510025 
L -78.355567 514.663675 
L -79.536564 516.279795 
L -79.795065 517.526888 
L -80.058635 519.868545 
L -81.234564 524.743775 
L -81.498134 527.306533 
L -81.270044 533.325399 
L -82.501728 543.795171 
L -83.277232 545.548131 
L -84.691387 546.459583 
L -85.259077 546.056448 
L -85.466892 545.162499 
L -85.745668 544.654149 
L -88.325614 544.58403 
L -88.381369 544.654149 
L -90.469655 544.420419 
L -91.716545 543.970477 
L -91.914222 542.603032 
L -90.849804 539.569629 
L -94.484031 538.201751 
L -102.163045 536.506331 
L -105.38671 534.752231 
L -105.574251 535.851493 
L -105.797271 536.430325 
L -106.03043 536.915589 
L -106.314274 537.698993 
L -107.089779 537.698993 
L -109.325056 534.377994 
L -111.803629 534.395537 
L -114.596459 535.816412 
L -117.642831 536.683653 
L -117.643288 536.677971 
L -118.294103 523.190426 
L -118.951001 509.6792 
L -119.601817 496.165311 
L -120.252632 482.634639 
L -120.90953 469.087114 
L -121.557304 455.529717 
L -122.214202 441.958865 
L -122.868059 428.37096 
L -123.521915 414.776544 
L -124.178813 401.164946 
L -124.83267 387.532547 
L -125.483485 373.89701 
L -126.134301 360.244088 
L -126.788157 346.570148 
L -127.445055 332.892909 
L -128.098912 319.198079 
L -127.955976 317.950452 
L -127.551497 314.331672 
L -126.894599 308.489632 
L -126.000488 300.571317 
L -124.893494 290.751612 
L -123.591863 279.165712 
L -122.110802 265.9879 
L -120.465516 251.353111 
L -118.680335 235.425048 
L -116.767424 218.367779 
L -114.754154 200.317113 
L -112.649648 181.445372 
L -110.469112 161.900433 
L -108.236876 141.845384 
L -105.965104 121.444246 
L -103.678126 100.843911 
L -101.397231 80.206724 
L -99.128501 59.699711 
L -96.893223 39.483694 
L -94.715729 19.724159 
L -92.608181 0.580294 
L -90.588829 -17.773177 
L -88.678959 -35.178942 
L -86.89682 -51.467988 
L -85.257616 -66.470677 
L -83.776555 -80.013229 
L -82.471883 -91.93261 
L -81.364888 -102.062063 
L -80.473818 -110.23132 
L -79.819962 -116.274227 
L -79.406359 -120.02903 
L -79.266465 -121.30917 
L -78.679514 -126.763247 
L -78.521372 -129.184776 
L -80.622837 -129.480116 
L -84.652419 -132.289902 
L -87.669283 -136.655389 
L -89.846777 -142.76672 
L -90.649653 -144.570402 
L -89.247662 -144.570402 
L -84.929167 -144.529743 
L -65.301303 -144.304269 
L -45.67648 -144.078799 
L -26.656855 -143.92356 
L -7.035073 -143.92356 
L 12.595833 -143.491118 
L 32.220656 -143.058691 
L 51.842437 -142.411928 
L 71.473343 -141.97954 
L 91.101207 -141.547167 
L 110.729071 -141.547167 
L 130.353894 -141.547167 
L 149.978717 -141.573035 
L 169.609623 -141.565644 
L 188.769143 -141.44739 
L 208.856227 -141.210887 
L 230.713287 -140.85614 
L 230.865346 -139.987793 
L 231.297196 -137.431145 
L 231.491832 -135.528782 
L 232.270378 -129.960061 
L 233.340878 -123.065429 
L 234.606015 -114.935609 
L 236.065787 -105.705688 
L 237.914833 -95.473846 
L 239.958515 -84.356589 
L 242.002198 -72.481233 
L 244.240516 -59.949058 
L 246.673471 -46.87572 
L 249.009108 -33.365474 
L 251.247427 -19.547794 
L 253.583063 -5.028927 
L 255.724064 8.607905 
L 258.0597 22.718689 
L 260.602138 38.274441 
L 262.536338 50.441827 
L 264.774656 63.844473 
L 267.012975 76.789972 
L 268.959339 89.170894 
L 270.905703 100.887407 
L 272.754748 111.832703 
L 274.117203 121.885733 
L 275.674294 130.950964 
L 276.994172 138.911231 
L 278.174156 145.667453 
L 279.119967 151.113208 
L 279.813359 155.134658 
L 280.251291 157.624875 
L 280.400309 158.4801 
L 281.419109 164.281143 
L 281.081537 165.630018 
L 285.144572 176.271824 
L 284.776587 180.512413 
L 284.901276 181.816376 
L 285.299672 182.976145 
L 285.913994 184.002563 
L 286.677333 184.949676 
L 289.189359 187.664591 
L 289.882751 188.658238 
L 288.851787 190.065774 
L 289.323172 191.476757 
L 290.487949 192.984756 
L 291.503708 194.697688 
L 292.233594 199.835132 
L 293.480484 202.859808 
L 293.562596 204.718861 
L 293.282806 207.321811 
L 294.040063 208.712953 
L 295.512001 209.694212 
L 296.482142 210.858687 
L 295.758338 212.799249 
L 304.340586 223.941117 
L 305.77603 226.371526 
L 306.289991 228.248772 
L 306.892148 232.974792 
L 307.828835 235.267213 
L 309.127425 237.354796 
L 310.179678 239.528113 
L 310.322614 241.471599 
L 310.13406 243.368193 
L 309.322062 245.013598 
L 308.792894 246.432997 
L 309.443709 248.106688 
L 306.740088 251.034238 
L 307.171938 253.721133 
L 309.610975 256.113799 
L 315.550426 259.544438 
L 316.751698 260.532641 
L 317.508955 262.193799 
L 318.062452 262.301194 
L 318.622032 262.598316 
L 318.874451 263.675776 
L 318.527755 264.86768 
L 317.657974 265.658644 
L 316.544897 266.070213 
L 315.471355 266.13821 
L 316.189077 267.970421 
L 315.821092 269.433859 
L 314.857034 270.517916 
L 313.774369 271.229838 
L 311.536051 270.274637 
L 309.680922 270.743302 
L 309.236908 271.956031 
L 311.219766 273.233032 
L 309.735664 274.348966 
L 307.704146 275.311025 
L 305.614846 275.979776 
L 303.954355 276.230102 
L 303.105862 276.780802 
L 302.254327 278.118121 
L 300.259304 282.922771 
L 300.04338 284.155826 
L 300.088998 287.772124 
L 299.781837 289.672786 
L 298.525824 292.244676 
L 298.130469 295.580245 
L 299.058033 298.850716 
L 298.632266 302.480852 
L 298.452835 303.023324 
L 297.388417 305.200126 
L 296.877497 305.881642 
L 293.371001 311.617832 
L 290.953252 317.233905 
L 289.958781 322.11707 
L 289.335336 324.037766 
L 289.168071 324.746821 
L 289.043382 325.658918 
L 288.234424 328.765277 
L 289.089 331.721347 
L 292.522507 347.95382 
L 293.538266 350.397128 
L 297.820267 356.267071 
L 298.933344 358.996732 
L 299.176639 360.833965 
L 299.234422 364.806076 
L 299.492924 365.932123 
L 300.606 368.826731 
L 300.861461 370.808202 
L 300.116368 374.24845 
L 298.732625 377.002854 
L 298.008821 380.005081 
L 299.234422 384.163089 
L 296.612913 387.635391 
L 295.740091 392.953836 
L 294.985874 404.080339 
L 294.395883 405.373113 
L 292.814462 407.639597 
L 292.434313 409.119689 
L 292.659361 410.266827 
L 293.787644 413.113008 
L 294.055269 414.521717 
L 293.398371 419.712858 
L 293.577802 422.001708 
L 294.985874 423.872831 
L 297.485736 425.114209 
L 300.888831 429.795764 
L 303.896572 435.878672 
L 305.465828 442.672342 
L 306.645811 444.194536 
L 306.892148 445.709497 
L 306.481587 446.902985 
L 305.687835 447.806859 
L 305.341139 448.428238 
L 285.552091 448.431768 
L 265.760003 448.431768 
L 245.970955 448.438829 
L 226.181908 448.442359 
L 206.389819 448.442359 
L 186.600772 448.44942 
L 166.811724 448.456481 
L 147.019636 448.456481 
L 127.230588 448.456481 
L 107.441541 448.463542 
L 87.649452 448.467073 
L 67.860405 448.467073 
L 48.071357 448.467073 
L 28.279269 448.474134 
L 8.490221 448.477664 
L -11.298826 448.477664 
L -16.921993 448.484725 
L -17.752239 450.486352 
L -17.49982 457.272757 
L -17.706621 457.971322 
L -20.258183 463.544452 
L -20.756939 465.032587 
L -20.951575 465.892952 
L -21.067141 466.788521 
L -20.866422 467.920238 
L -20.346378 469.122365 
L -19.090365 471.068107 
L -17.679251 472.851461 
L -11.675934 478.784908 
L -10.967336 479.8628 
L -8.397528 484.634807 
L -6.6458 487.099401 
L -4.86366 488.496982 
L 5.138826 494.627764 
L 6.139378 495.539054 
L 6.552981 496.056246 
L 6.726329 497.512722 
L 6.619887 499.633837 
L 5.801806 504.624029 
L 4.79213 508.427884 
L 2.666335 512.25529 
L 2.191909 513.492205 
L 2.045932 514.117649 
L 2.337886 516.432948 
L 4.676564 523.299277 
L 4.746512 523.464308 
L 4.756085 523.486895 
z
" style="fill:none;stroke:#000000;stroke-width:0.5;"/>
    <path clip-path="url(#p1b6a6fa96f)" d="M -4.135609 548.309062 
L -3.293837 548.054481 
L 1.303434 547.41187 
L 1.434295 549.5529 
L -1.651593 550.204091 
L -3.795634 551.430622 
L -4.809366 551.091877 
L -7.556577 551.856963 
L -8.894703 552.493529 
L -8.894703 551.430622 
L -7.455204 550.846573 
L -6.593533 550.087273 
L -5.84844 549.263678 
L -4.723198 548.486766 
z
" style="fill:none;stroke:#000000;stroke-width:0.5;"/>
    <path clip-path="url(#p1b6a6fa96f)" d="M -76.399066 556.411566 
L -78.015967 557.0596 
L -78.87257 557.23474 
L -106.314274 558.373091 
L -104.535176 557.23474 
L -93.05467 555.354797 
L -86.181572 555.354797 
L -84.311238 555.039502 
L -83.150516 554.309626 
L -82.243226 553.439564 
L -81.123053 552.727123 
L -76.399066 555.354797 
z
" style="fill:none;stroke:#000000;stroke-width:0.5;"/>
    <path clip-path="url(#p1b6a6fa96f)" d="M 818.097103 298.280958 
L 818.208613 298.608213 
L 819.50112 299.179402 
L 821.219395 299.179402 
L 823.34823 299.816011 
L 824.899239 302.629813 
L 822.628481 305.663054 
L 816.464995 310.2889 
L 815.309342 309.504165 
L 814.457808 308.136714 
L 813.966148 306.852371 
L 813.92053 306.305298 
L 812.232667 306.495587 
L 811.365927 307.559964 
L 810.82865 308.737221 
L 810.078489 309.290139 
L 808.821462 310.538578 
L 809.024208 313.189637 
L 810.717139 315.661898 
L 813.92053 316.369022 
L 809.642584 320.682263 
L 806.864961 322.719576 
L 805.025038 322.850238 
L 802.860722 321.395061 
L 797.244651 320.308029 
L 795.125953 319.357546 
L 794.38086 318.157464 
L 793.615493 316.547283 
L 792.556144 315.32912 
L 790.94938 315.28158 
L 789.702491 316.547283 
L 790.503338 317.955459 
L 793.042735 319.856558 
L 793.179589 321.210925 
L 788.212306 322.51764 
L 786.620748 324.245871 
L 793.503983 325.332582 
L 794.228801 325.843246 
L 796.829021 328.325033 
L 798.805797 328.200361 
L 799.459654 328.325033 
L 798.258382 330.284012 
L 796.844227 333.987478 
L 793.047804 338.917903 
L 791.283911 340.620286 
L 789.601118 341.355744 
L 783.082826 341.498086 
L 778.946802 340.798223 
L 775.951227 338.828922 
L 774.704337 337.642456 
L 772.894827 336.598278 
L 771.22217 336.283822 
L 770.385842 337.286495 
L 770.897776 339.303479 
L 772.514678 340.311857 
L 776.341513 341.355744 
L 779.980808 344.273451 
L 779.646277 346.917816 
L 774.643513 352.21683 
L 773.047367 354.532188 
L 772.184563 356.727079 
L 766.944224 365.650577 
L 764.784656 366.412065 
L 763.187528 368.320994 
L 762.904206 369.489689 
L 764.544682 372.681956 
L 763.543065 375.605226 
L 763.694471 376.186755 
L 763.700522 376.915244 
L 763.708984 377.935077 
L 763.145031 380.708514 
L 758.929157 384.97296 
L 759.100729 388.177154 
L 761.035254 392.092965 
L 762.671964 395.28164 
L 763.864439 397.891219 
L 762.553317 398.777822 
L 751.008369 397.321919 
L 748.276364 396.069724 
L 745.767379 394.415703 
L 744.642137 394.220751 
L 743.091128 395.171852 
L 746.25397 398.054282 
L 751.302351 400.209796 
L 756.847461 401.55608 
L 761.49035 402.01662 
L 763.538087 402.778248 
L 768.921 406.780519 
L 770.811609 408.639579 
L 771.085317 410.976321 
L 770.218576 414.339105 
L 768.485096 416.456642 
L 766.128171 415.076447 
L 761.682959 422.294377 
L 758.646834 426.22017 
L 756.350733 427.929245 
L 753.451462 427.711202 
L 752.366769 426.880252 
L 752.290739 425.200516 
L 752.670889 418.444113 
L 751.738256 416.645376 
L 749.041731 417.058222 
L 747.774567 418.621025 
L 747.561683 420.879399 
L 748.545002 426.597364 
L 748.757886 429.508475 
L 748.159785 431.499929 
L 743.729779 429.107792 
L 742.665361 430.180181 
L 743.070854 431.994801 
L 746.62905 433.597122 
L 749.49791 436.671635 
L 750.830966 437.819982 
L 750.754937 434.957768 
L 751.500029 433.29081 
L 754.145868 430.893097 
L 753.932984 434.728058 
L 751.596334 444.819862 
L 750.830966 444.819862 
L 749.244477 441.970891 
L 746.700012 438.70326 
L 743.628406 436.023807 
L 740.460496 434.940098 
L 742.224388 437.649208 
L 747.237289 442.8539 
L 748.276364 445.273053 
L 747.531271 448.203714 
L 745.57477 449.615856 
L 739.695129 450.745464 
L 739.695129 451.822036 
L 742.239594 453.039695 
L 746.618913 453.004402 
L 748.276364 453.710243 
L 746.841934 455.862834 
L 743.020167 460.219911 
L 742.239594 462.089324 
L 742.102741 462.888744 
L 741.509708 464.892966 
L 741.398197 465.545303 
L 741.798621 466.943904 
L 742.452478 467.784171 
L 742.999893 468.753646 
L 743.091128 470.569024 
L 741.950681 470.005049 
L 740.688585 469.634928 
L 739.365666 469.476302 
L 737.99206 469.582053 
L 737.99206 470.569024 
L 739.776227 471.303332 
L 740.29323 472.713094 
L 740.272956 474.522075 
L 740.460496 476.471749 
L 741.068735 477.798778 
L 742.553851 479.736245 
L 743.091128 481.403423 
L 742.797146 484.66088 
L 741.986161 488.246125 
L 742.14329 490.000266 
L 741.250639 489.785306 
L 739.000156 489.141159 
L 734.958409 490.376628 
L 733.781468 490.397746 
L 728.620562 489.239719 
L 727.373672 488.68707 
L 725.676686 487.588746 
L 724.791699 487.564104 
L 723.49615 487.80349 
L 722.164107 487.659154 
L 716.142544 485.835471 
L 714.305663 485.018608 
L 713.055732 484.243952 
L 712.268063 483.504466 
L 711.027256 482.627596 
L 709.290734 482.166249 
L 708.150287 482.057072 
L 707.043292 482.212032 
L 695.681393 477.544874 
L 693.990489 476.58659 
L 693.023389 475.822028 
L 691.192591 474.662773 
L 690.088637 474.41611 
L 689.139785 474.349158 
L 688.358198 474.409063 
L 686.624718 474.296301 
L 685.669783 474.35973 
L 684.599283 474.676868 
L 683.991044 475.223033 
L 683.638266 475.790317 
L 683.443629 476.706379 
L 683.452753 477.005847 
L 683.328064 477.981717 
L 683.151675 478.675705 
L 682.768484 479.320342 
L 682.227152 479.767696 
L 681.114075 479.989606 
L 680.086151 479.8628 
L 678.793644 479.440108 
L 678.167158 479.623276 
L 677.783968 480.158678 
L 677.552837 481.652057 
L 677.339953 482.458555 
L 676.971969 483.166403 
L 675.509155 484.634807 
L 675.153335 485.187618 
L 674.91004 485.800263 
L 674.715403 486.46569 
L 674.624167 487.877417 
L 675.025605 491.425457 
L 674.967822 492.28769 
L 674.806639 493.188578 
L 673.949022 496.481947 
L 673.854745 497.277023 
L 673.970311 498.954975 
L 674.213606 500.101634 
L 674.639373 501.424043 
L 675.208077 502.718193 
L 677.607578 506.107728 
L 678.154993 507.211608 
L 678.34963 507.893579 
L 678.498648 509.338263 
L 678.449989 510.990149 
L 676.765168 520.542618 
L 674.253142 529.526958 
L 673.930775 531.404543 
L 673.863869 532.302886 
L 674.101082 536.428905 
L 674.073711 537.340955 
L 673.812169 538.47041 
L 673.33166 539.003538 
L 672.677803 539.361283 
L 669.253419 540.290675 
L 668.706004 540.294182 
L 668.088642 540.23807 
L 665.762129 539.515601 
L 664.916677 539.347254 
L 659.162739 540.027646 
L 657.961467 539.929447 
L 657.082562 539.634846 
L 656.443911 539.196441 
L 655.963403 538.684365 
L 655.260887 537.439172 
L 653.390553 532.123924 
L 653.107722 530.83603 
L 653.098598 530.106053 
L 653.168546 529.274254 
L 653.496995 527.585934 
L 654.105233 525.500699 
L 654.239046 524.72831 
L 654.287705 523.966412 
L 654.211675 523.33439 
L 654.035286 522.656691 
L 653.448336 521.406547 
L 652.916127 520.486426 
L 649.972251 516.647244 
L 649.284941 515.487903 
L 649.132882 514.876576 
L 649.160253 514.303871 
L 649.373136 513.769793 
L 649.887098 512.82808 
L 650.242917 511.90036 
L 650.239876 511.478648 
L 649.987457 511.25373 
L 644.841758 510.909317 
L 640.28909 510.596526 
L 634.45304 510.195863 
L 627.4218 509.717863 
L 619.298772 509.159004 
L 610.163026 508.533336 
L 600.121004 507.844366 
L 589.266984 507.099115 
L 577.683077 506.30812 
L 565.469643 505.467858 
L 552.720959 504.595901 
L 539.534343 503.692242 
L 525.99799 502.763908 
L 512.209217 501.817928 
L 498.256221 500.857814 
L 484.2424 499.897634 
L 470.252909 498.93387 
L 456.388107 497.980592 
L 442.733147 497.048355 
L 429.39143 496.130129 
L 416.445069 495.239989 
L 403.997463 494.384978 
L 392.14289 493.57566 
L 380.972585 492.812042 
L 370.577785 492.097651 
L 361.052767 491.446574 
L 352.50093 490.855298 
L 345.001346 490.341431 
L 338.657416 489.9085 
L 333.557334 489.552994 
L 329.795378 489.296039 
L 327.477988 489.141159 
L 326.681195 489.084839 
L 322.727643 488.820834 
L 321.635855 488.996838 
L 316.067429 483.09245 
L 314.215342 473.598568 
L 314.0572 467.504228 
L 313.129636 464.098113 
L 311.426568 460.694679 
L 310.371273 459.615278 
L 309.373762 455.265066 
L 308.668205 453.694698 
L 307.91703 452.91474 
L 305.745618 451.37234 
L 305.189079 450.733446 
L 305.070473 448.911905 
L 305.341139 448.428238 
L 305.687835 447.806859 
L 306.481587 446.902985 
L 306.892148 445.709497 
L 306.645811 444.194536 
L 305.465828 442.672342 
L 303.896572 435.878672 
L 300.888831 429.795764 
L 297.485736 425.114209 
L 294.985874 423.872831 
L 293.577802 422.001708 
L 293.398371 419.712858 
L 294.055269 414.521717 
L 293.787644 413.113008 
L 292.659361 410.266827 
L 292.434313 409.119689 
L 292.814462 407.639597 
L 294.395883 405.373113 
L 294.985874 404.080339 
L 295.740091 392.953836 
L 296.612913 387.635391 
L 299.234422 384.163089 
L 298.008821 380.005081 
L 298.732625 377.002854 
L 300.116368 374.24845 
L 300.861461 370.808202 
L 300.606 368.826731 
L 299.492924 365.932123 
L 299.234422 364.806076 
L 299.176639 360.833965 
L 298.933344 358.996732 
L 297.820267 356.267071 
L 293.538266 350.397128 
L 292.522507 347.95382 
L 289.089 331.721347 
L 288.234424 328.765277 
L 289.043382 325.658918 
L 289.168071 324.746821 
L 289.335336 324.037766 
L 289.958781 322.11707 
L 290.953252 317.233905 
L 293.371001 311.617832 
L 296.877497 305.881642 
L 297.388417 305.200126 
L 298.452835 303.023324 
L 298.632266 302.480852 
L 299.058033 298.850716 
L 298.130469 295.580245 
L 298.525824 292.244676 
L 299.781837 289.672786 
L 300.088998 287.772124 
L 300.04338 284.155826 
L 300.259304 282.922771 
L 302.254327 278.118121 
L 303.105862 276.780802 
L 303.954355 276.230102 
L 305.614846 275.979776 
L 307.704146 275.311025 
L 309.735664 274.348966 
L 311.219766 273.233032 
L 309.236908 271.956031 
L 309.680922 270.743302 
L 311.536051 270.274637 
L 313.774369 271.229838 
L 314.857034 270.517916 
L 315.821092 269.433859 
L 316.189077 267.970421 
L 315.471355 266.13821 
L 316.544897 266.070213 
L 317.657974 265.658644 
L 318.527755 264.86768 
L 318.874451 263.675776 
L 318.622032 262.598316 
L 318.062452 262.301194 
L 317.508955 262.193799 
L 316.751698 260.532641 
L 315.550426 259.544438 
L 309.610975 256.113799 
L 307.171938 253.721133 
L 306.740088 251.034238 
L 309.443709 248.106688 
L 308.792894 246.432997 
L 309.322062 245.013598 
L 310.13406 243.368193 
L 310.322614 241.471599 
L 310.179678 239.528113 
L 309.127425 237.354796 
L 307.828835 235.267213 
L 306.892148 232.974792 
L 306.289991 228.248772 
L 305.77603 226.371526 
L 304.340586 223.941117 
L 295.758338 212.799249 
L 296.482142 210.858687 
L 295.512001 209.694212 
L 294.040063 208.712953 
L 293.282806 207.321811 
L 293.562596 204.718861 
L 293.480484 202.859808 
L 292.233594 199.835132 
L 291.503708 194.697688 
L 290.487949 192.984756 
L 289.323172 191.476757 
L 288.851787 190.065774 
L 289.882751 188.658238 
L 289.189359 187.664591 
L 286.677333 184.949676 
L 285.913994 184.002563 
L 285.299672 182.976145 
L 284.901276 181.816376 
L 284.776587 180.512413 
L 285.144572 176.271824 
L 281.081537 165.630018 
L 281.419109 164.281143 
L 280.400309 158.4801 
L 280.251291 157.624875 
L 279.813359 155.134658 
L 279.119967 151.113208 
L 278.174156 145.667453 
L 276.994172 138.911231 
L 275.674294 130.950964 
L 274.117203 121.885733 
L 272.754748 111.832703 
L 270.905703 100.887407 
L 268.959339 89.170894 
L 267.012975 76.789972 
L 264.774656 63.844473 
L 262.536338 50.441827 
L 260.602138 38.274441 
L 258.0597 22.718689 
L 255.724064 8.607905 
L 253.583063 -5.028927 
L 251.247427 -19.547794 
L 249.009108 -33.365474 
L 246.673471 -46.87572 
L 244.240516 -59.949058 
L 242.002198 -72.481233 
L 239.958515 -84.356589 
L 237.914833 -95.473846 
L 236.065787 -105.705688 
L 234.606015 -114.935609 
L 233.340878 -123.065429 
L 232.270378 -129.960061 
L 231.491832 -135.528782 
L 231.297196 -137.431145 
L 230.865346 -139.987793 
L 230.713287 -140.85614 
L 244.131033 -140.619648 
L 259.771892 -140.619648 
L 275.412752 -140.85614 
L 291.056652 -141.092637 
L 306.700553 -141.210887 
L 322.341412 -141.329138 
L 337.982271 -141.329138 
L 353.626172 -141.329138 
L 358.832695 -141.329138 
L 367.643033 -141.329138 
L 379.342506 -141.329138 
L 390.290803 -141.136981 
L 399.706339 -141.262622 
L 409.130998 -141.388264 
L 418.549575 -141.513908 
L 427.965111 -141.639553 
L 437.383687 -141.77259 
L 446.802264 -141.894542 
L 456.223883 -142.0128 
L 465.642459 -142.145841 
L 475.061036 -142.275188 
L 484.485696 -142.397145 
L 493.901231 -142.519104 
L 503.319808 -142.652151 
L 512.741426 -142.777807 
L 522.156962 -142.910857 
L 531.57858 -143.036516 
L 541.000198 -143.162177 
L 541.051899 -142.977382 
L 540.866386 -141.159152 
L 540.160829 -139.37814 
L 539.700457 -137.402417 
L 538.543935 -134.392402 
L 535.570021 -133.288915 
L 532.513498 -130.279906 
L 529.870019 -127.772962 
L 527.8048 -125.968278 
L 525.409147 -124.564818 
L 523.385604 -122.209406 
L 522.138715 -120.084364 
L 520.453894 -118.57566 
L 518.574436 -117.332685 
L 516.901779 -115.883321 
L 515.855609 -113.718811 
L 515.362935 -112.856063 
L 515.180464 -111.742691 
L 515.086187 -110.515149 
L 514.861138 -109.302472 
L 514.32893 -108.078858 
L 512.212259 -105.396177 
L 511.014028 -99.034509 
L 514.949333 -93.496961 
L 526.320356 -86.100246 
L 530.495915 -84.040256 
L 533.451956 -84.88996 
L 534.33086 -84.669252 
L 534.565032 -82.638923 
L 535.495638 -80.767048 
L 540.133458 -78.15278 
L 542.764091 -74.601787 
L 545.391682 -72.918545 
L 547.401911 -69.369048 
L 549.41214 -67.12817 
L 553.432598 -64.884023 
L 559.311226 -65.071325 
L 567.814403 -65.071325 
L 573.072627 -61.714993 
L 574.465494 -57.794297 
L 575.079815 -53.687701 
L 576.782883 -48.837864 
L 577.908125 -47.502839 
L 585.015395 -36.494328 
L 586.009865 -33.087066 
L 588.375914 -20.286987 
L 589.063224 -18.197598 
L 589.914758 -17.557313 
L 591.952358 -14.744102 
L 594.896233 -13.522436 
L 596.483736 -12.114375 
L 597.882685 -10.402972 
L 598.840662 -8.900201 
L 600.200075 -4.729218 
L 601.218875 -2.638764 
L 604.153627 -1.063844 
L 605.199797 0.57664 
L 606.471016 4.759089 
L 607.866924 8.282956 
L 608.794488 12.185446 
L 610.339415 13.8534 
L 612.349644 14.597886 
L 614.825176 14.597886 
L 616.832363 16.63405 
L 619.000735 19.793468 
L 621.938528 23.127145 
L 625.800844 25.727094 
L 629.824343 27.58283 
L 634.614223 30.73222 
L 639.872447 34.992124 
L 645.903134 40.547157 
L 649.30623 44.625367 
L 650.854197 51.286048 
L 652.861385 54.244015 
L 653.919721 57.572269 
L 655.710984 61.895876 
L 658.189557 64.6042 
L 661.112144 66.614166 
L 663.788394 67.831622 
L 669.709598 69.604902 
L 672.166883 70.822072 
L 674.764062 73.00542 
L 680.019245 79.636724 
L 682.576889 82.050882 
L 687.579653 85.487999 
L 689.337463 88.089721 
L 688.452475 91.274928 
L 689.091126 92.040275 
L 690.152503 94.325162 
L 688.181809 94.644288 
L 687.85336 95.757541 
L 689.380039 99.386726 
L 687.603982 100.329203 
L 688.461599 102.547375 
L 693.753276 108.880822 
L 694.796405 109.797246 
L 695.258667 109.065561 
L 695.866906 108.395417 
L 697.244566 108.57654 
L 698.70738 109.145251 
L 699.586285 109.616139 
L 699.586285 110.626679 
L 697.886258 111.553843 
L 700.012053 113.208808 
L 700.887916 114.910629 
L 700.477355 116.452935 
L 698.737792 117.625832 
L 700.635497 120.952078 
L 702.590985 122.801228 
L 704.838427 123.611731 
L 707.630243 123.789021 
L 708.454406 125.011898 
L 709.166046 130.914802 
L 709.792532 132.986687 
L 714.226592 136.659575 
L 725.193136 141.180561 
L 730.284095 144.099747 
L 733.790591 147.520279 
L 735.679172 148.701181 
L 738.398 149.152568 
L 739.95205 150.210556 
L 741.503058 152.719772 
L 742.68 155.72658 
L 743.117932 158.238333 
L 742.090009 163.296448 
L 742.096091 166.15294 
L 743.543699 167.407866 
L 749.924124 178.498576 
L 751.101066 182.587166 
L 751.475132 184.881256 
L 751.62111 187.059725 
L 752.287131 189.324227 
L 753.549227 191.393974 
L 754.291278 193.715299 
L 754.175712 195.70519 
L 753.397167 196.712614 
L 753.086965 198.518586 
L 752.603415 200.043753 
L 752.934905 200.734336 
L 753.518815 201.137159 
L 754.242619 202.101007 
L 754.847816 203.262565 
L 755.100235 204.258618 
L 754.695757 207.073762 
L 754.023653 209.341974 
L 753.886799 211.480417 
L 755.100235 213.89518 
L 756.672532 215.450884 
L 758.919975 217.060286 
L 761.48066 218.321085 
L 765.215246 219.039434 
L 766.337446 219.606903 
L 767.362328 220.407781 
L 768.280769 221.334297 
L 770.129815 223.495912 
L 770.786712 224.048825 
L 771.261139 223.941117 
L 773.992131 225.395109 
L 774.664234 225.947942 
L 775.117372 227.243779 
L 775.354585 228.916331 
L 775.996277 230.351828 
L 777.678057 230.969043 
L 779.423703 232.034747 
L 779.9772 234.492355 
L 779.843387 239.083437 
L 783.629673 251.113061 
L 785.500008 251.747214 
L 787.026687 253.470379 
L 788.015075 256.02068 
L 788.267494 259.129085 
L 788.012034 260.862025 
L 787.051017 262.845316 
L 786.646538 264.223421 
L 786.433654 265.86622 
L 786.646538 269.684309 
L 786.381954 270.546536 
L 785.211094 273.072073 
L 784.94651 274.685158 
L 785.274959 275.647193 
L 787.495031 280.320469 
L 787.455495 280.770904 
L 787.233488 281.37146 
L 787.145293 282.175734 
L 787.495031 283.230152 
L 788.05461 283.90565 
L 789.368406 284.670458 
L 790.049633 285.227954 
L 793.650407 289.672786 
L 794.726989 290.315805 
L 801.934618 289.715655 
L 804.659528 290.315805 
L 809.668374 292.70542 
L 810.538156 293.766143 
L 811.337989 295.787351 
L 813.244818 297.247715 
L 815.51659 298.101007 
L 818.016451 298.308074 
z
" style="fill:none;stroke:#000000;stroke-width:0.5;"/>
    <path clip-path="url(#p1b6a6fa96f)" d="M 744.794197 476.471749 
L 744.885433 472.760083 
L 744.794197 471.550051 
L 744.439391 470.281165 
L 743.334424 467.502129 
L 743.091128 466.620711 
L 744.36843 462.265671 
L 750.531916 457.291826 
L 751.596334 452.722055 
L 752.447868 452.722055 
L 752.47828 455.686404 
L 752.184298 459.243952 
L 751.079331 463.970237 
L 750.623152 468.22485 
L 749.426949 473.382679 
L 747.500859 477.37015 
L 747.485653 479.560123 
L 748.276364 483.90381 
L 747.850597 486.732338 
L 746.923033 488.034909 
L 745.9904 487.530324 
z
" style="fill:none;stroke:#000000;stroke-width:0.5;"/>
    <path clip-path="url(#p1b6a6fa96f)" d="M 773.128245 375.280174 
L 775.175945 372.092388 
L 776.928643 371.920708 
L 779.154884 370.953229 
L 781.390299 371.571136 
L 782.674973 372.831131 
L 781.260172 375.536905 
L 779.687739 378.40219 
L 777.808796 382.695779 
L 775.121263 385.56895 
L 771.829135 392.249041 
L 769.600355 392.584638 
L 768.155419 391.170885 
L 767.020579 388.803699 
L 768.421223 384.672369 
L 770.627177 381.483309 
L 772.347695 377.347761 
z
" style="fill:none;stroke:#000000;stroke-width:0.5;"/>
    <path clip-path="url(#p1b6a6fa96f)" d="M 784.430791 351.223917 
L 785.838012 347.079577 
L 787.435403 347.069259 
L 788.080039 347.860547 
L 787.774078 349.771028 
L 787.797633 353.109684 
L 788.465024 357.236978 
L 787.20513 359.627834 
L 785.795259 363.289242 
L 784.380341 366.155887 
L 782.622544 365.691911 
L 783.243008 363.306439 
L 783.548272 361.399148 
L 782.25864 359.66109 
L 782.072781 356.16742 
L 783.012685 353.777136 
z
" style="fill:none;stroke:#000000;stroke-width:0.5;"/>
   </g>
   <g id="patch_3">
    <path d="M 7.2 288.430125 
L 7.2 22.318125 
L 306.161506 22.318125 
L 306.161506 288.430125 
L 7.2 288.430125 
" style="fill:none;stroke:#000000;stroke-linejoin:miter;stroke-width:0.8;"/>
   </g>
   <g id="text_1">
    <!-- Weatherby 1984, Morphological Intermediates -->
    <g transform="translate(17.269816 16.318125)scale(0.12 -0.12)">
     <defs>
      <path d="M 213 4666 
L 850 4666 
L 1831 722 
L 2809 4666 
L 3519 4666 
L 4500 722 
L 5478 4666 
L 6119 4666 
L 4947 0 
L 4153 0 
L 3169 4050 
L 2175 0 
L 1381 0 
L 213 4666 
z
" id="DejaVuSans-57" transform="scale(0.015625)"/>
      <path d="M 3597 1894 
L 3597 1613 
L 953 1613 
Q 991 1019 1311 708 
Q 1631 397 2203 397 
Q 2534 397 2845 478 
Q 3156 559 3463 722 
L 3463 178 
Q 3153 47 2828 -22 
Q 2503 -91 2169 -91 
Q 1331 -91 842 396 
Q 353 884 353 1716 
Q 353 2575 817 3079 
Q 1281 3584 2069 3584 
Q 2775 3584 3186 3129 
Q 3597 2675 3597 1894 
z
M 3022 2063 
Q 3016 2534 2758 2815 
Q 2500 3097 2075 3097 
Q 1594 3097 1305 2825 
Q 1016 2553 972 2059 
L 3022 2063 
z
" id="DejaVuSans-65" transform="scale(0.015625)"/>
      <path d="M 2194 1759 
Q 1497 1759 1228 1600 
Q 959 1441 959 1056 
Q 959 750 1161 570 
Q 1363 391 1709 391 
Q 2188 391 2477 730 
Q 2766 1069 2766 1631 
L 2766 1759 
L 2194 1759 
z
M 3341 1997 
L 3341 0 
L 2766 0 
L 2766 531 
Q 2569 213 2275 61 
Q 1981 -91 1556 -91 
Q 1019 -91 701 211 
Q 384 513 384 1019 
Q 384 1609 779 1909 
Q 1175 2209 1959 2209 
L 2766 2209 
L 2766 2266 
Q 2766 2663 2505 2880 
Q 2244 3097 1772 3097 
Q 1472 3097 1187 3025 
Q 903 2953 641 2809 
L 641 3341 
Q 956 3463 1253 3523 
Q 1550 3584 1831 3584 
Q 2591 3584 2966 3190 
Q 3341 2797 3341 1997 
z
" id="DejaVuSans-61" transform="scale(0.015625)"/>
      <path d="M 1172 4494 
L 1172 3500 
L 2356 3500 
L 2356 3053 
L 1172 3053 
L 1172 1153 
Q 1172 725 1289 603 
Q 1406 481 1766 481 
L 2356 481 
L 2356 0 
L 1766 0 
Q 1100 0 847 248 
Q 594 497 594 1153 
L 594 3053 
L 172 3053 
L 172 3500 
L 594 3500 
L 594 4494 
L 1172 4494 
z
" id="DejaVuSans-74" transform="scale(0.015625)"/>
      <path d="M 3513 2113 
L 3513 0 
L 2938 0 
L 2938 2094 
Q 2938 2591 2744 2837 
Q 2550 3084 2163 3084 
Q 1697 3084 1428 2787 
Q 1159 2491 1159 1978 
L 1159 0 
L 581 0 
L 581 4863 
L 1159 4863 
L 1159 2956 
Q 1366 3272 1645 3428 
Q 1925 3584 2291 3584 
Q 2894 3584 3203 3211 
Q 3513 2838 3513 2113 
z
" id="DejaVuSans-68" transform="scale(0.015625)"/>
      <path d="M 2631 2963 
Q 2534 3019 2420 3045 
Q 2306 3072 2169 3072 
Q 1681 3072 1420 2755 
Q 1159 2438 1159 1844 
L 1159 0 
L 581 0 
L 581 3500 
L 1159 3500 
L 1159 2956 
Q 1341 3275 1631 3429 
Q 1922 3584 2338 3584 
Q 2397 3584 2469 3576 
Q 2541 3569 2628 3553 
L 2631 2963 
z
" id="DejaVuSans-72" transform="scale(0.015625)"/>
      <path d="M 3116 1747 
Q 3116 2381 2855 2742 
Q 2594 3103 2138 3103 
Q 1681 3103 1420 2742 
Q 1159 2381 1159 1747 
Q 1159 1113 1420 752 
Q 1681 391 2138 391 
Q 2594 391 2855 752 
Q 3116 1113 3116 1747 
z
M 1159 2969 
Q 1341 3281 1617 3432 
Q 1894 3584 2278 3584 
Q 2916 3584 3314 3078 
Q 3713 2572 3713 1747 
Q 3713 922 3314 415 
Q 2916 -91 2278 -91 
Q 1894 -91 1617 61 
Q 1341 213 1159 525 
L 1159 0 
L 581 0 
L 581 4863 
L 1159 4863 
L 1159 2969 
z
" id="DejaVuSans-62" transform="scale(0.015625)"/>
      <path d="M 2059 -325 
Q 1816 -950 1584 -1140 
Q 1353 -1331 966 -1331 
L 506 -1331 
L 506 -850 
L 844 -850 
Q 1081 -850 1212 -737 
Q 1344 -625 1503 -206 
L 1606 56 
L 191 3500 
L 800 3500 
L 1894 763 
L 2988 3500 
L 3597 3500 
L 2059 -325 
z
" id="DejaVuSans-79" transform="scale(0.015625)"/>
      <path id="DejaVuSans-20" transform="scale(0.015625)"/>
      <path d="M 794 531 
L 1825 531 
L 1825 4091 
L 703 3866 
L 703 4441 
L 1819 4666 
L 2450 4666 
L 2450 531 
L 3481 531 
L 3481 0 
L 794 0 
L 794 531 
z
" id="DejaVuSans-31" transform="scale(0.015625)"/>
      <path d="M 703 97 
L 703 672 
Q 941 559 1184 500 
Q 1428 441 1663 441 
Q 2288 441 2617 861 
Q 2947 1281 2994 2138 
Q 2813 1869 2534 1725 
Q 2256 1581 1919 1581 
Q 1219 1581 811 2004 
Q 403 2428 403 3163 
Q 403 3881 828 4315 
Q 1253 4750 1959 4750 
Q 2769 4750 3195 4129 
Q 3622 3509 3622 2328 
Q 3622 1225 3098 567 
Q 2575 -91 1691 -91 
Q 1453 -91 1209 -44 
Q 966 3 703 97 
z
M 1959 2075 
Q 2384 2075 2632 2365 
Q 2881 2656 2881 3163 
Q 2881 3666 2632 3958 
Q 2384 4250 1959 4250 
Q 1534 4250 1286 3958 
Q 1038 3666 1038 3163 
Q 1038 2656 1286 2365 
Q 1534 2075 1959 2075 
z
" id="DejaVuSans-39" transform="scale(0.015625)"/>
      <path d="M 2034 2216 
Q 1584 2216 1326 1975 
Q 1069 1734 1069 1313 
Q 1069 891 1326 650 
Q 1584 409 2034 409 
Q 2484 409 2743 651 
Q 3003 894 3003 1313 
Q 3003 1734 2745 1975 
Q 2488 2216 2034 2216 
z
M 1403 2484 
Q 997 2584 770 2862 
Q 544 3141 544 3541 
Q 544 4100 942 4425 
Q 1341 4750 2034 4750 
Q 2731 4750 3128 4425 
Q 3525 4100 3525 3541 
Q 3525 3141 3298 2862 
Q 3072 2584 2669 2484 
Q 3125 2378 3379 2068 
Q 3634 1759 3634 1313 
Q 3634 634 3220 271 
Q 2806 -91 2034 -91 
Q 1263 -91 848 271 
Q 434 634 434 1313 
Q 434 1759 690 2068 
Q 947 2378 1403 2484 
z
M 1172 3481 
Q 1172 3119 1398 2916 
Q 1625 2713 2034 2713 
Q 2441 2713 2670 2916 
Q 2900 3119 2900 3481 
Q 2900 3844 2670 4047 
Q 2441 4250 2034 4250 
Q 1625 4250 1398 4047 
Q 1172 3844 1172 3481 
z
" id="DejaVuSans-38" transform="scale(0.015625)"/>
      <path d="M 2419 4116 
L 825 1625 
L 2419 1625 
L 2419 4116 
z
M 2253 4666 
L 3047 4666 
L 3047 1625 
L 3713 1625 
L 3713 1100 
L 3047 1100 
L 3047 0 
L 2419 0 
L 2419 1100 
L 313 1100 
L 313 1709 
L 2253 4666 
z
" id="DejaVuSans-34" transform="scale(0.015625)"/>
      <path d="M 750 794 
L 1409 794 
L 1409 256 
L 897 -744 
L 494 -744 
L 750 256 
L 750 794 
z
" id="DejaVuSans-2c" transform="scale(0.015625)"/>
      <path d="M 628 4666 
L 1569 4666 
L 2759 1491 
L 3956 4666 
L 4897 4666 
L 4897 0 
L 4281 0 
L 4281 4097 
L 3078 897 
L 2444 897 
L 1241 4097 
L 1241 0 
L 628 0 
L 628 4666 
z
" id="DejaVuSans-4d" transform="scale(0.015625)"/>
      <path d="M 1959 3097 
Q 1497 3097 1228 2736 
Q 959 2375 959 1747 
Q 959 1119 1226 758 
Q 1494 397 1959 397 
Q 2419 397 2687 759 
Q 2956 1122 2956 1747 
Q 2956 2369 2687 2733 
Q 2419 3097 1959 3097 
z
M 1959 3584 
Q 2709 3584 3137 3096 
Q 3566 2609 3566 1747 
Q 3566 888 3137 398 
Q 2709 -91 1959 -91 
Q 1206 -91 779 398 
Q 353 888 353 1747 
Q 353 2609 779 3096 
Q 1206 3584 1959 3584 
z
" id="DejaVuSans-6f" transform="scale(0.015625)"/>
      <path d="M 1159 525 
L 1159 -1331 
L 581 -1331 
L 581 3500 
L 1159 3500 
L 1159 2969 
Q 1341 3281 1617 3432 
Q 1894 3584 2278 3584 
Q 2916 3584 3314 3078 
Q 3713 2572 3713 1747 
Q 3713 922 3314 415 
Q 2916 -91 2278 -91 
Q 1894 -91 1617 61 
Q 1341 213 1159 525 
z
M 3116 1747 
Q 3116 2381 2855 2742 
Q 2594 3103 2138 3103 
Q 1681 3103 1420 2742 
Q 1159 2381 1159 1747 
Q 1159 1113 1420 752 
Q 1681 391 2138 391 
Q 2594 391 2855 752 
Q 3116 1113 3116 1747 
z
" id="DejaVuSans-70" transform="scale(0.015625)"/>
      <path d="M 603 4863 
L 1178 4863 
L 1178 0 
L 603 0 
L 603 4863 
z
" id="DejaVuSans-6c" transform="scale(0.015625)"/>
      <path d="M 2906 1791 
Q 2906 2416 2648 2759 
Q 2391 3103 1925 3103 
Q 1463 3103 1205 2759 
Q 947 2416 947 1791 
Q 947 1169 1205 825 
Q 1463 481 1925 481 
Q 2391 481 2648 825 
Q 2906 1169 2906 1791 
z
M 3481 434 
Q 3481 -459 3084 -895 
Q 2688 -1331 1869 -1331 
Q 1566 -1331 1297 -1286 
Q 1028 -1241 775 -1147 
L 775 -588 
Q 1028 -725 1275 -790 
Q 1522 -856 1778 -856 
Q 2344 -856 2625 -561 
Q 2906 -266 2906 331 
L 2906 616 
Q 2728 306 2450 153 
Q 2172 0 1784 0 
Q 1141 0 747 490 
Q 353 981 353 1791 
Q 353 2603 747 3093 
Q 1141 3584 1784 3584 
Q 2172 3584 2450 3431 
Q 2728 3278 2906 2969 
L 2906 3500 
L 3481 3500 
L 3481 434 
z
" id="DejaVuSans-67" transform="scale(0.015625)"/>
      <path d="M 603 3500 
L 1178 3500 
L 1178 0 
L 603 0 
L 603 3500 
z
M 603 4863 
L 1178 4863 
L 1178 4134 
L 603 4134 
L 603 4863 
z
" id="DejaVuSans-69" transform="scale(0.015625)"/>
      <path d="M 3122 3366 
L 3122 2828 
Q 2878 2963 2633 3030 
Q 2388 3097 2138 3097 
Q 1578 3097 1268 2742 
Q 959 2388 959 1747 
Q 959 1106 1268 751 
Q 1578 397 2138 397 
Q 2388 397 2633 464 
Q 2878 531 3122 666 
L 3122 134 
Q 2881 22 2623 -34 
Q 2366 -91 2075 -91 
Q 1284 -91 818 406 
Q 353 903 353 1747 
Q 353 2603 823 3093 
Q 1294 3584 2113 3584 
Q 2378 3584 2631 3529 
Q 2884 3475 3122 3366 
z
" id="DejaVuSans-63" transform="scale(0.015625)"/>
      <path d="M 628 4666 
L 1259 4666 
L 1259 0 
L 628 0 
L 628 4666 
z
" id="DejaVuSans-49" transform="scale(0.015625)"/>
      <path d="M 3513 2113 
L 3513 0 
L 2938 0 
L 2938 2094 
Q 2938 2591 2744 2837 
Q 2550 3084 2163 3084 
Q 1697 3084 1428 2787 
Q 1159 2491 1159 1978 
L 1159 0 
L 581 0 
L 581 3500 
L 1159 3500 
L 1159 2956 
Q 1366 3272 1645 3428 
Q 1925 3584 2291 3584 
Q 2894 3584 3203 3211 
Q 3513 2838 3513 2113 
z
" id="DejaVuSans-6e" transform="scale(0.015625)"/>
      <path d="M 3328 2828 
Q 3544 3216 3844 3400 
Q 4144 3584 4550 3584 
Q 5097 3584 5394 3201 
Q 5691 2819 5691 2113 
L 5691 0 
L 5113 0 
L 5113 2094 
Q 5113 2597 4934 2840 
Q 4756 3084 4391 3084 
Q 3944 3084 3684 2787 
Q 3425 2491 3425 1978 
L 3425 0 
L 2847 0 
L 2847 2094 
Q 2847 2600 2669 2842 
Q 2491 3084 2119 3084 
Q 1678 3084 1418 2786 
Q 1159 2488 1159 1978 
L 1159 0 
L 581 0 
L 581 3500 
L 1159 3500 
L 1159 2956 
Q 1356 3278 1631 3431 
Q 1906 3584 2284 3584 
Q 2666 3584 2933 3390 
Q 3200 3197 3328 2828 
z
" id="DejaVuSans-6d" transform="scale(0.015625)"/>
      <path d="M 2906 2969 
L 2906 4863 
L 3481 4863 
L 3481 0 
L 2906 0 
L 2906 525 
Q 2725 213 2448 61 
Q 2172 -91 1784 -91 
Q 1150 -91 751 415 
Q 353 922 353 1747 
Q 353 2572 751 3078 
Q 1150 3584 1784 3584 
Q 2172 3584 2448 3432 
Q 2725 3281 2906 2969 
z
M 947 1747 
Q 947 1113 1208 752 
Q 1469 391 1925 391 
Q 2381 391 2643 752 
Q 2906 1113 2906 1747 
Q 2906 2381 2643 2742 
Q 2381 3103 1925 3103 
Q 1469 3103 1208 2742 
Q 947 2381 947 1747 
z
" id="DejaVuSans-64" transform="scale(0.015625)"/>
      <path d="M 2834 3397 
L 2834 2853 
Q 2591 2978 2328 3040 
Q 2066 3103 1784 3103 
Q 1356 3103 1142 2972 
Q 928 2841 928 2578 
Q 928 2378 1081 2264 
Q 1234 2150 1697 2047 
L 1894 2003 
Q 2506 1872 2764 1633 
Q 3022 1394 3022 966 
Q 3022 478 2636 193 
Q 2250 -91 1575 -91 
Q 1294 -91 989 -36 
Q 684 19 347 128 
L 347 722 
Q 666 556 975 473 
Q 1284 391 1588 391 
Q 1994 391 2212 530 
Q 2431 669 2431 922 
Q 2431 1156 2273 1281 
Q 2116 1406 1581 1522 
L 1381 1569 
Q 847 1681 609 1914 
Q 372 2147 372 2553 
Q 372 3047 722 3315 
Q 1072 3584 1716 3584 
Q 2034 3584 2315 3537 
Q 2597 3491 2834 3397 
z
" id="DejaVuSans-73" transform="scale(0.015625)"/>
     </defs>
     <use xlink:href="#DejaVuSans-57"/>
     <use x="93.001953" xlink:href="#DejaVuSans-65"/>
     <use x="154.525391" xlink:href="#DejaVuSans-61"/>
     <use x="215.804688" xlink:href="#DejaVuSans-74"/>
     <use x="255.013672" xlink:href="#DejaVuSans-68"/>
     <use x="318.392578" xlink:href="#DejaVuSans-65"/>
     <use x="379.916016" xlink:href="#DejaVuSans-72"/>
     <use x="421.029297" xlink:href="#DejaVuSans-62"/>
     <use x="484.505859" xlink:href="#DejaVuSans-79"/>
     <use x="543.685547" xlink:href="#DejaVuSans-20"/>
     <use x="575.472656" xlink:href="#DejaVuSans-31"/>
     <use x="639.095703" xlink:href="#DejaVuSans-39"/>
     <use x="702.71875" xlink:href="#DejaVuSans-38"/>
     <use x="766.341797" xlink:href="#DejaVuSans-34"/>
     <use x="829.964844" xlink:href="#DejaVuSans-2c"/>
     <use x="861.751953" xlink:href="#DejaVuSans-20"/>
     <use x="893.539062" xlink:href="#DejaVuSans-4d"/>
     <use x="979.818359" xlink:href="#DejaVuSans-6f"/>
     <use x="1041" xlink:href="#DejaVuSans-72"/>
     <use x="1082.113281" xlink:href="#DejaVuSans-70"/>
     <use x="1145.589844" xlink:href="#DejaVuSans-68"/>
     <use x="1208.96875" xlink:href="#DejaVuSans-6f"/>
     <use x="1270.150391" xlink:href="#DejaVuSans-6c"/>
     <use x="1297.933594" xlink:href="#DejaVuSans-6f"/>
     <use x="1359.115234" xlink:href="#DejaVuSans-67"/>
     <use x="1422.591797" xlink:href="#DejaVuSans-69"/>
     <use x="1450.375" xlink:href="#DejaVuSans-63"/>
     <use x="1505.355469" xlink:href="#DejaVuSans-61"/>
     <use x="1566.634766" xlink:href="#DejaVuSans-6c"/>
     <use x="1594.417969" xlink:href="#DejaVuSans-20"/>
     <use x="1626.205078" xlink:href="#DejaVuSans-49"/>
     <use x="1655.697266" xlink:href="#DejaVuSans-6e"/>
     <use x="1719.076172" xlink:href="#DejaVuSans-74"/>
     <use x="1758.285156" xlink:href="#DejaVuSans-65"/>
     <use x="1819.808594" xlink:href="#DejaVuSans-72"/>
     <use x="1859.171875" xlink:href="#DejaVuSans-6d"/>
     <use x="1956.583984" xlink:href="#DejaVuSans-65"/>
     <use x="2018.107422" xlink:href="#DejaVuSans-64"/>
     <use x="2081.583984" xlink:href="#DejaVuSans-69"/>
     <use x="2109.367188" xlink:href="#DejaVuSans-61"/>
     <use x="2170.646484" xlink:href="#DejaVuSans-74"/>
     <use x="2209.855469" xlink:href="#DejaVuSans-65"/>
     <use x="2271.378906" xlink:href="#DejaVuSans-73"/>
    </g>
   </g>
   <g id="PathCollection_3">
    <defs>
     <path d="M 0 2.738613 
C 0.726289 2.738613 1.422928 2.450055 1.936492 1.936492 
C 2.450055 1.422928 2.738613 0.726289 2.738613 0 
C 2.738613 -0.726289 2.450055 -1.422928 1.936492 -1.936492 
C 1.422928 -2.450055 0.726289 -2.738613 0 -2.738613 
C -0.726289 -2.738613 -1.422928 -2.450055 -1.936492 -1.936492 
C -2.450055 -1.422928 -2.738613 -0.726289 -2.738613 0 
C -2.738613 0.726289 -2.450055 1.422928 -1.936492 1.936492 
C -1.422928 2.450055 -0.726289 2.738613 0 2.738613 
z
" id="mc9cfa513c7" style="stroke:#000000;stroke-width:0.3;"/>
    </defs>
    <g clip-path="url(#p1b6a6fa96f)">
     <use style="fill:#1f77b4;stroke:#000000;stroke-width:0.3;" x="83.282582" xlink:href="#mc9cfa513c7" y="116.385333"/>
     <use style="fill:#1f77b4;stroke:#000000;stroke-width:0.3;" x="125.188831" xlink:href="#mc9cfa513c7" y="114.242054"/>
     <use style="fill:#1f77b4;stroke:#000000;stroke-width:0.3;" x="102.882524" xlink:href="#mc9cfa513c7" y="131.98563"/>
     <use style="fill:#1f77b4;stroke:#000000;stroke-width:0.3;" x="141.442903" xlink:href="#mc9cfa513c7" y="112.883235"/>
     <use style="fill:#1f77b4;stroke:#000000;stroke-width:0.3;" x="125.58475" xlink:href="#mc9cfa513c7" y="139.406482"/>
     <use style="fill:#1f77b4;stroke:#000000;stroke-width:0.3;" x="106.063617" xlink:href="#mc9cfa513c7" y="169.66377"/>
     <use style="fill:#1f77b4;stroke:#000000;stroke-width:0.3;" x="106.634901" xlink:href="#mc9cfa513c7" y="152.089401"/>
     <use style="fill:#1f77b4;stroke:#000000;stroke-width:0.3;" x="143.580011" xlink:href="#mc9cfa513c7" y="157.719652"/>
     <use style="fill:#1f77b4;stroke:#000000;stroke-width:0.3;" x="90.817423" xlink:href="#mc9cfa513c7" y="173.500832"/>
     <use style="fill:#1f77b4;stroke:#000000;stroke-width:0.3;" x="104.73899" xlink:href="#mc9cfa513c7" y="170.91365"/>
     <use style="fill:#1f77b4;stroke:#000000;stroke-width:0.3;" x="231.309911" xlink:href="#mc9cfa513c7" y="143.830015"/>
     <use style="fill:#1f77b4;stroke:#000000;stroke-width:0.3;" x="242.917804" xlink:href="#mc9cfa513c7" y="196.718546"/>
     <use style="fill:#1f77b4;stroke:#000000;stroke-width:0.3;" x="79.174621" xlink:href="#mc9cfa513c7" y="171.792684"/>
     <use style="fill:#1f77b4;stroke:#000000;stroke-width:0.3;" x="88.779797" xlink:href="#mc9cfa513c7" y="182.381815"/>
     <use style="fill:#1f77b4;stroke:#000000;stroke-width:0.3;" x="153.835751" xlink:href="#mc9cfa513c7" y="180.447636"/>
     <use style="fill:#1f77b4;stroke:#000000;stroke-width:0.3;" x="78.621389" xlink:href="#mc9cfa513c7" y="185.078451"/>
     <use style="fill:#1f77b4;stroke:#000000;stroke-width:0.3;" x="86.528122" xlink:href="#mc9cfa513c7" y="164.56511"/>
     <use style="fill:#1f77b4;stroke:#000000;stroke-width:0.3;" x="102.80811" xlink:href="#mc9cfa513c7" y="180.346927"/>
     <use style="fill:#1f77b4;stroke:#000000;stroke-width:0.3;" x="133.128476" xlink:href="#mc9cfa513c7" y="184.176216"/>
     <use style="fill:#1f77b4;stroke:#000000;stroke-width:0.3;" x="130.808105" xlink:href="#mc9cfa513c7" y="231.297526"/>
    </g>
   </g>
   <g id="PathCollection_4">
    <defs>
     <path d="M 0 -1.581139 
L -0.354988 -0.488599 
L -1.503752 -0.488599 
L -0.574382 0.186628 
L -0.92937 1.279168 
L -0 0.603941 
L 0.92937 1.279168 
L 0.574382 0.186628 
L 1.503752 -0.488599 
L 0.354988 -0.488599 
z
" id="mf187ac9032" style="stroke:#000000;"/>
    </defs>
    <g clip-path="url(#p1b6a6fa96f)">
     <use style="stroke:#000000;" x="246.269551" xlink:href="#mf187ac9032" y="216.527795"/>
    </g>
   </g>
   <g id="PathCollection_5">
    <g clip-path="url(#p1b6a6fa96f)">
     <use style="stroke:#000000;" x="80.644877" xlink:href="#mf187ac9032" y="79.165861"/>
    </g>
   </g>
   <g id="PathCollection_6">
    <g clip-path="url(#p1b6a6fa96f)">
     <use style="stroke:#000000;" x="143.264856" xlink:href="#mf187ac9032" y="247.508683"/>
    </g>
   </g>
   <g id="text_2">
    <!-- Auburn -->
    <g transform="translate(249.383734 219.011232)scale(0.09 -0.09)">
     <defs>
      <path d="M 2188 4044 
L 1331 1722 
L 3047 1722 
L 2188 4044 
z
M 1831 4666 
L 2547 4666 
L 4325 0 
L 3669 0 
L 3244 1197 
L 1141 1197 
L 716 0 
L 50 0 
L 1831 4666 
z
" id="DejaVuSans-41" transform="scale(0.015625)"/>
      <path d="M 544 1381 
L 544 3500 
L 1119 3500 
L 1119 1403 
Q 1119 906 1312 657 
Q 1506 409 1894 409 
Q 2359 409 2629 706 
Q 2900 1003 2900 1516 
L 2900 3500 
L 3475 3500 
L 3475 0 
L 2900 0 
L 2900 538 
Q 2691 219 2414 64 
Q 2138 -91 1772 -91 
Q 1169 -91 856 284 
Q 544 659 544 1381 
z
M 1991 3584 
L 1991 3584 
z
" id="DejaVuSans-75" transform="scale(0.015625)"/>
     </defs>
     <use xlink:href="#DejaVuSans-41"/>
     <use x="68.408203" xlink:href="#DejaVuSans-75"/>
     <use x="131.787109" xlink:href="#DejaVuSans-62"/>
     <use x="195.263672" xlink:href="#DejaVuSans-75"/>
     <use x="258.642578" xlink:href="#DejaVuSans-72"/>
     <use x="298.005859" xlink:href="#DejaVuSans-6e"/>
    </g>
   </g>
   <g id="text_3">
    <!-- Birmingham -->
    <g transform="translate(22.643351 81.649298)scale(0.09 -0.09)">
     <defs>
      <path d="M 1259 2228 
L 1259 519 
L 2272 519 
Q 2781 519 3026 730 
Q 3272 941 3272 1375 
Q 3272 1813 3026 2020 
Q 2781 2228 2272 2228 
L 1259 2228 
z
M 1259 4147 
L 1259 2741 
L 2194 2741 
Q 2656 2741 2882 2914 
Q 3109 3088 3109 3444 
Q 3109 3797 2882 3972 
Q 2656 4147 2194 4147 
L 1259 4147 
z
M 628 4666 
L 2241 4666 
Q 2963 4666 3353 4366 
Q 3744 4066 3744 3513 
Q 3744 3084 3544 2831 
Q 3344 2578 2956 2516 
Q 3422 2416 3680 2098 
Q 3938 1781 3938 1306 
Q 3938 681 3513 340 
Q 3088 0 2303 0 
L 628 0 
L 628 4666 
z
" id="DejaVuSans-42" transform="scale(0.015625)"/>
     </defs>
     <use xlink:href="#DejaVuSans-42"/>
     <use x="68.603516" xlink:href="#DejaVuSans-69"/>
     <use x="96.386719" xlink:href="#DejaVuSans-72"/>
     <use x="135.75" xlink:href="#DejaVuSans-6d"/>
     <use x="233.162109" xlink:href="#DejaVuSans-69"/>
     <use x="260.945312" xlink:href="#DejaVuSans-6e"/>
     <use x="324.324219" xlink:href="#DejaVuSans-67"/>
     <use x="387.800781" xlink:href="#DejaVuSans-68"/>
     <use x="451.179688" xlink:href="#DejaVuSans-61"/>
     <use x="512.458984" xlink:href="#DejaVuSans-6d"/>
    </g>
   </g>
   <g id="text_4">
    <!-- Montgomery -->
    <g transform="translate(90.282425 255.745213)scale(0.09 -0.09)">
     <use xlink:href="#DejaVuSans-4d"/>
     <use x="86.279297" xlink:href="#DejaVuSans-6f"/>
     <use x="147.460938" xlink:href="#DejaVuSans-6e"/>
     <use x="210.839844" xlink:href="#DejaVuSans-74"/>
     <use x="250.048828" xlink:href="#DejaVuSans-67"/>
     <use x="313.525391" xlink:href="#DejaVuSans-6f"/>
     <use x="374.707031" xlink:href="#DejaVuSans-6d"/>
     <use x="472.119141" xlink:href="#DejaVuSans-65"/>
     <use x="533.642578" xlink:href="#DejaVuSans-72"/>
     <use x="574.755859" xlink:href="#DejaVuSans-79"/>
    </g>
   </g>
  </g>
 </g>
 <defs>
  <clipPath id="p1b6a6fa96f">
   <path d="M 7.2 288.430125 
L 7.2 22.318125 
L 306.161506 22.318125 
L 306.161506 288.430125 
L 7.2 288.430125 
"/>
  </clipPath>
 </defs>
</svg>
